#N canvas 0 56 959 984 12;
#N canvas 961 56 959 984 metapatch 1;
#X text 402 77 M X F A: M = indice do toggle X = Posição X do toggle
F = frequencia da tecla A = Amplitude da tecla;
#X obj 94 69 loadbang;
#X obj 94 110 f \$1;
#X floatatom 94 141 5 0 0 0 - - -;
#X msg 416 317 \$1 \$2 \$3 \$4;
#X obj 65 185 t f f;
#X floatatom 68 261 5 0 0 0 - - -;
#X obj 68 302 ofelia f \; return ofTable(a \, a+1);
#X msg 41 791 \; pd-teclado.pd coords 0 -1 1 1 \$1 45 1 15 100 \;;
#X obj 415 360 ofelia f \; return ofTable(a[1] \, a[2] \, a[3] \, a[4]
\, a[2] + 10 \, a[1] + 1 \, a[1] + 2 \, a[1] + 3 \, a[1] + 4 \, a[1]
+ 5 \, a[1] + 6 \, a[1] + 7 \, a[1] + 8 \, a[2]);
#X f 100;
#X msg 74 360 \; pd-teclado.pd obj 377 530 catch~ sinal \; pd-teclado.pd
obj 376 561 dac~ \; pd-teclado.pd connect \$1 0 \$2 0 \; pd-teclado.pd
connect \$1 0 \$2 1 \;;
#X msg 415 418 \; pd-teclado.pd obj \$2 129 tgl 15 0 empty empty empty
17 7 0 10 -262144 -1 -1 0 1 \; pd-teclado.pd obj \$2 149 sel 1 \; pd-teclado.pd
msg \$2 200 \$4 25 \; pd-teclado.pd obj \$2 270 line~ \; pd-teclado.pd
obj \$2 350 *~ \; pd-teclado.pd obj \$2 400 throw~ sinal \; pd-teclado.pd
msg \$5 175 0 250 \; pd-teclado.pd obj \$5 298 osc~ \$3 \; pd-teclado.pd
connect \$1 0 \$6 0 \; pd-teclado.pd connect \$6 1 \$11 0 \; pd-teclado.pd
connect \$6 0 \$7 0 \; pd-teclado.pd connect \$7 0 \$8 0 \; pd-teclado.pd
connect \$8 0 \$9 0 \; pd-teclado.pd connect \$9 0 \$10 0 \; pd-teclado.pd
connect \$11 0 \$8 0 \; pd-teclado.pd connect \$12 0 \$9 1 \;;
#X obj 35 732 expr 35 + 90*($f1 - 1);
#X obj 414 169 ofelia f \; local out=ofOutlet(this) \; for k=1 \, a
do \; m = 8*(k-1) + 3 \; X = 20 + 90*(k-1) \; F = 440*2^(k-1) \; A
= 1/a \; out:outletList(0 \, ofTable(m \, X \, F \, A)) \; end \;;
#X obj 65 231 expr $f1*8 + 3;
#X msg 230 69 9;
#X connect 1 0 2 0;
#X connect 2 0 3 0;
#X connect 3 0 5 0;
#X connect 4 0 9 0;
#X connect 5 0 12 0;
#X connect 5 0 14 0;
#X connect 5 1 13 0;
#X connect 6 0 7 0;
#X connect 7 0 10 0;
#X connect 9 0 11 0;
#X connect 12 0 8 0;
#X connect 13 0 4 0;
#X connect 14 0 6 0;
#X connect 15 0 3 0;
#X restore 604 680 pd metapatch;
#X text 8 15 Nome: Caio Túlio de Deus Andrade;
#X text 272 12 NUSP:9797232;
#X coords 0 -1 1 1 755 45 1 15 100;
