#N canvas 0 56 959 984 12;
#N canvas 961 56 959 984 metapatch 1;
#X msg 93 109 1 109 440 1;
#X text 402 77 M X F A: M = indice do toggle X = Posição X do toggle
F = frequencia da tecla A = Amplitude da tecla;
#X obj 49 221 print;
#X obj 95 153 ofelia f \; return ofTable(a[1] \, a[2] \, a[3] \, a[4]
\, a[2] + 60 \, a[1] + 1 \, a[1] + 2 \, a[1] + 3 \, a[1] + 4 \, a[1]
+ 5 \, a[1] + 6 \, a[1] + 7 \, a[1] + 8 \, a[1] + 9 );
#X f 100;
#X obj 90 60 loadbang;
#X msg 97 228 \; pd-teclado.pd obj \$2 129 tgl 15 0 empty empty empty
17 7 0 10 -262144 -1 -1 0 1 \; pd-teclado.pd obj \$2 149 sel 1 \; pd-teclado.pd
msg \$2 174 \$4 25 \; pd-teclado.pd obj \$2 199 line~ \; pd-teclado.pd
obj \$2 224 *~ \; pd-teclado.pd obj \$2 249 throw~ sinal \; pd-teclado.pd
msg \$5 175 0 250 \; pd-teclado.pd obj \$5 198 osc~ \$3 \; pd-teclado.pd
obj \$2 300 catch~ sinal \; pd-teclado.pd obj \$2 400 dac~ \; pd-teclado.pd
connect \$1 0 \$6 0 \; pd-teclado.pd connect \$6 1 \$11 0 \; pd-teclado.pd
connect \$6 0 \$7 0 \; pd-teclado.pd connect \$7 0 \$8 0 \; pd-teclado.pd
connect \$8 0 \$9 0 \; pd-teclado.pd connect \$9 0 \$10 0 \; pd-teclado.pd
connect \$11 0 \$8 0 \; pd-teclado.pd connect \$12 0 \$9 1 \; pd-teclado.pd
connect \$13 0 \$14 0 \; pd-teclado.pd coords 0 -1 1 1 45 45 1 100
100 \;;
#X connect 0 0 3 0;
#X connect 3 0 2 0;
#X connect 3 0 5 0;
#X connect 4 0 0 0;
#X restore 366 540 pd metapatch;
#X obj 109 129 tgl 15 0 empty empty empty 17 7 0 10 -262144 -1 -1 0
1;
#X obj 109 149 sel 1;
#X msg 109 174 1 25;
#X obj 109 199 line~;
#X obj 109 224 *~;
#X obj 109 249 throw~ sinal;
#X msg 169 175 0 250;
#X obj 169 198 osc~ 440;
#X obj 109 300 catch~ sinal;
#X obj 109 400 dac~;
#X connect 1 0 2 0;
#X connect 2 0 3 0;
#X connect 2 1 7 0;
#X connect 3 0 4 0;
#X connect 4 0 5 0;
#X connect 5 0 6 0;
#X connect 7 0 4 0;
#X connect 8 0 5 1;
#X connect 9 0 10 0;
#X coords 0 -1 1 1 45 45 1 100 100;
