#N canvas 512 57 959 984 12;
#N canvas 0 56 1920 985 meta 0;
#X obj 317 29 loadbang;
#X msg 316 55 args;
#X obj 315 79 pdcontrol;
#X obj 53 152 ofelia f \; phi = ofTable() \; for i=1 \, #a do \; phi[i]
= 2 * math.pi * a[i]/ 44000 \; end \; return phi \;;
#X text 311 218 Calcula psis;
#X obj 172 847 Botimo;
#X obj 340 110 t l l b;
#X msg 89 823 \$2;
#X msg 50 823 \$1;
#X msg 129 825 \$4;
#X msg 172 814 \$4 \$3;
#X msg 230 821 \$5;
#X msg 1389 481 \$1 \$2 \$5;
#X obj 1389 506 ofelia f \; return ofTable(a[1] - 30 \, a[2] + 50 \,
a[3]);
#X obj 67 762 t a a a a a a;
#X msg 285 825 \$6;
#X msg 465 262 \; pd-equalizador-auto.pd coords 0 -1 1 1 \$1 180 1
100 100 \;;
#X msg 1081 331 \; pd-equalizador-auto.pd obj \$2 140 vsl 15 128 1e-05
1 0 0 empty empty \$1khz 0 -9 0 10 -262144 -1 -1 0 1 \;;
#X obj 465 215 ofelia f \; return #a*35 + 70 \;;
#X obj 1081 180 ofelia f \; local o=ofOutlet(this) \; local x = 101
\; for i=1 \, #a do \; label = math.ceil(a[i]/1000) \; o:outletAnything(0
\, ofTable(label \, x)) \; x = x + 35 \; end \;;
#X text 1398 626 Cria o objeto *~ e conecta-o com cada outlet;
#X text 895 782 Cria o objeto 2polos2zeros com o botimo e seu phi \,
tambem o conecta com o objeto multiplicativo e recebe o inlet;
#X msg 897 699 \; pd-equalizador-auto.pd obj \$1 \$2 2polos2zeros~
\$4 \$3 \; pd-equalizador-auto.pd connect \$6 0 \$5 0 \; pd-equalizador-auto.pd
connect 1 0 \$6 0 \; pd-equalizador-auto.pd connect \$7 0 \$5 1 \;
;
#X obj 96 947 pack f f f f f f;
#X msg 468 456 \; pd-2polos2zeros~.pd loadbang;
#X msg 1385 552 \; pd-equalizador-auto.pd obj \$1 \$2 *~ 0 \; pd-equalizador-auto.pd
connect \$3 0 2 0 \;;
#X obj 45 272 ofelia f \; local media = 0 \; local succ = 0 \; local
id = #a + 5 \; local vsl_id = 5 \; local x = 92 \; local y = 320 \;
local o=ofOutlet(this) \; local tamanho = #a \; for i=1 \, #a do \;
if i==1 and a[1] >= math.pi/2 then \; media = (a[1]/2) \; end \; if
a[i] < math.pi/2 then \; if i==tamanho then \; succ = math.pi else
\; succ = a[i+1] \; end \; else \; if i==1 then \; succ = 0 else \;
succ = a[i-1] \; end end \; media = (a[i] + succ)/2 \; o:outletAnything(0
\, ofTable(x \, y \, media \, a[i] \, id \, vsl_id)) \; x = x + 30
\; y = y + 30 \; id = id + 4 \; vsl_id = vsl_id + 1 \; end \;;
#X obj 471 408 t b l l l l, f 125;
#X msg 1038 485 \$1 \$2 \$5;
#X obj 1038 510 ofelia f \; return ofTable(a[1] + 500 \, a[2] + 50
\, a[3]+1);
#X msg 1038 556 \; pd-equalizador-auto.pd obj \$1 \$2 *~ 0 \; pd-equalizador-auto.pd
connect \$3 0 3 0 \;;
#X obj 899 660 ofelia f \; return ofTable(a[1] \, a[2] \, a[3] \, a[4]
\, a[5] \, a[5] + 2 \, a[6]);
#X text 458 850 Cria o objeto 2polos2zeros com o botimo e seu phi \,
tambem o conecta com o objeto multiplicativo e recebe o inlet;
#X msg 460 767 \; pd-equalizador-auto.pd obj \$1 \$2 2polos2zeros~
\$4 \$3 \; pd-equalizador-auto.pd connect \$6 0 \$5 0 \; pd-equalizador-auto.pd
connect 4 0 \$6 0 \; pd-equalizador-auto.pd connect \$7 0 \$5 1 \;
;
#X obj 460 659 ofelia f \; return ofTable(a[1]+500 \, a[2] \, a[3]
\, a[4] \, a[5]+1 \, a[5] + 3 \, a[6]);
#X msg 1061 93 \; pd-equalizador-auto.pd obj 12 253 inlet~ \; pd-equalizador-auto.pd
obj 82 733 outlet~ \; pd-equalizador-auto.pd obj 600 733 outlet~ \;
pd-equalizador-auto.pd obj 680 230 inlet~ \;;
#X connect 0 0 1 0;
#X connect 1 0 2 0;
#X connect 2 0 6 0;
#X connect 3 0 26 0;
#X connect 5 0 23 3;
#X connect 6 0 3 0;
#X connect 6 1 18 0;
#X connect 6 1 19 0;
#X connect 6 2 35 0;
#X connect 7 0 23 1;
#X connect 8 0 23 0;
#X connect 9 0 23 2;
#X connect 10 0 5 0;
#X connect 11 0 23 4;
#X connect 12 0 13 0;
#X connect 13 0 25 0;
#X connect 14 0 8 0;
#X connect 14 1 7 0;
#X connect 14 2 9 0;
#X connect 14 3 10 0;
#X connect 14 4 11 0;
#X connect 14 5 15 0;
#X connect 15 0 23 5;
#X connect 18 0 16 0;
#X connect 19 0 17 0;
#X connect 23 0 27 0;
#X connect 26 0 14 0;
#X connect 27 0 24 0;
#X connect 27 1 34 0;
#X connect 27 2 31 0;
#X connect 27 3 28 0;
#X connect 27 4 12 0;
#X connect 28 0 29 0;
#X connect 29 0 30 0;
#X connect 31 0 22 0;
#X connect 34 0 33 0;
#X restore 8 5 pd meta;
#X coords 0 984 1 983 245 180 0;
