#N canvas 0 56 1920 985 12;
#X text 15 14 Nome: Caio Túlio de Deus Andrade;
#X text 12 37 NUSP:9797232;
#X obj 84 262 noise~;
#X obj 82 333 dac~;
#N canvas 626 330 1920 985 item_3 1;
#X obj 429 23 inlet~;
#X obj 753 386 outlet~;
#X obj 344 234 block~ 1024;
#X obj 428 74 rfft~;
#X obj 693 96 array define b 513;
#X obj 691 42 array define a 512;
#X obj 360 150 tabwrite~ a;
#X obj 484 149 tabwrite~ b;
#X obj 682 174 tabplay~ a;
#X obj 833 178 tabplay~ b;
#X obj 758 249 rifft~;
#X obj 350 104 bang~;
#X obj 756 310 /~ 1024;
#X obj 489 102 bang~;
#X obj 775 135 bang~;
#X connect 0 0 3 0;
#X connect 3 0 6 0;
#X connect 3 1 7 0;
#X connect 8 0 10 0;
#X connect 9 0 10 1;
#X connect 10 0 12 0;
#X connect 11 0 6 0;
#X connect 12 0 1 0;
#X connect 13 0 7 0;
#X connect 14 0 8 0;
#X connect 14 0 9 0;
#X restore 116 292 pd item_3;
#X connect 2 0 4 0;
#X connect 2 0 3 0;
#X connect 4 0 3 1;
