#N canvas 786 121 959 463 12;
#X msg 219 54 read -c karplusstrong~.lua;
#X obj 140 168 outlet~;
#X obj 19 12 inlet;
#X obj 53 96 ofelia d -s11;
#X obj 219 15 loadbang;
#X obj 39 178 dac~;
#X msg 422 276 440 0.6 50;
#X msg 328 150 440 0.6 1;
#X msg 326 183 440 0.6 2;
#X msg 324 211 440 0.6 3;
#X msg 326 244 440 0.6 4;
#X msg 324 277 440 0.6 5;
#X msg 426 150 440 0.6 6;
#X msg 424 182 440 0.6 7;
#X msg 422 210 440 0.6 8;
#X msg 424 244 440 0.6 9;
#X connect 0 0 3 0;
#X connect 2 0 3 0;
#X connect 3 0 1 0;
#X connect 3 0 5 0;
#X connect 4 0 0 0;
#X connect 6 0 3 0;
#X connect 7 0 3 0;
#X connect 8 0 3 0;
#X connect 9 0 3 0;
#X connect 10 0 3 0;
#X connect 11 0 3 0;
#X connect 12 0 3 0;
#X connect 13 0 3 0;
#X connect 14 0 3 0;
#X connect 15 0 3 0;
