#N canvas 80 62 450 773 12;
#X obj 43 680 ofelia d -s11;
#X msg 49 46 read -c karplusstrong~.lua;
#X obj 42 755 dac~;
#X obj 41 718 *~ 1;
#X obj 302 45 bng 15 250 50 0 empty empty empty 17 7 0 10 -262144 -1
-1;
#X msg 100 295 660 0.1;
#X msg 88 109 770 0.1;
#X msg 157 557 380 0.1;
#X obj 302 68 delay 100;
#X obj 302 140 delay 100;
#X obj 302 92 delay 300;
#X obj 302 116 delay 300;
#X obj 302 164 delay 300;
#X obj 301 187 delay 550;
#X obj 301 210 delay 575;
#X text 47 14 src: https://wiki.mikrotik.com/wiki/Super_Mario_Theme
;
#X obj 300 268 delay 450;
#X obj 300 292 delay 400;
#X obj 300 316 delay 500;
#X obj 300 340 delay 300;
#X obj 300 364 delay 330;
#X obj 300 388 delay 150;
#X obj 300 412 delay 300;
#X obj 299 437 delay 200;
#X obj 299 461 delay 200;
#X obj 299 485 delay 150;
#X obj 299 509 delay 300;
#X obj 299 533 delay 150;
#X obj 299 557 delay 350;
#X obj 299 581 delay 300;
#X obj 299 605 delay 150;
#X obj 299 629 delay 150;
#X obj 299 653 delay 500;
#X msg 165 584 320 0.1;
#X msg 144 491 440 0.1;
#X msg 118 415 510 0.1;
#X msg 134 466 450 0.1;
#X msg 124 439 480 0.08;
#X msg 153 521 430 0.1;
#X msg 82 80 860 0.1;
#X msg 104 212 700 0.08;
#X msg 108 372 520 0.08;
#X msg 115 333 580 0.08;
#X msg 173 295 660 0.08;
#X msg 94 136 760 0.05;
#X obj 157 680 ofelia d -s11;
#X connect 0 0 3 0;
#X connect 1 0 0 0;
#X connect 1 0 45 0;
#X connect 3 0 2 0;
#X connect 4 0 5 0;
#X connect 4 0 8 0;
#X connect 5 0 0 0;
#X connect 5 0 45 0;
#X connect 6 0 0 0;
#X connect 6 0 45 0;
#X connect 7 0 0 0;
#X connect 7 0 45 0;
#X connect 8 0 10 0;
#X connect 8 0 5 0;
#X connect 9 0 12 0;
#X connect 9 0 5 0;
#X connect 10 0 11 0;
#X connect 10 0 5 0;
#X connect 11 0 9 0;
#X connect 11 0 35 0;
#X connect 12 0 13 0;
#X connect 12 0 6 0;
#X connect 13 0 14 0;
#X connect 13 0 7 0;
#X connect 14 0 16 0;
#X connect 14 0 35 0;
#X connect 16 0 17 0;
#X connect 16 0 7 0;
#X connect 17 0 18 0;
#X connect 17 0 33 0;
#X connect 18 0 19 0;
#X connect 18 0 34 0;
#X connect 19 0 20 0;
#X connect 19 0 37 0;
#X connect 20 0 21 0;
#X connect 20 0 36 0;
#X connect 21 0 22 0;
#X connect 21 0 38 0;
#X connect 22 0 23 0;
#X connect 22 0 7 0;
#X connect 23 0 24 0;
#X connect 23 0 43 0;
#X connect 24 0 25 0;
#X connect 24 0 44 0;
#X connect 25 0 26 0;
#X connect 25 0 39 0;
#X connect 26 0 27 0;
#X connect 26 0 40 0;
#X connect 27 0 28 0;
#X connect 27 0 44 0;
#X connect 28 0 29 0;
#X connect 28 0 43 0;
#X connect 29 0 30 0;
#X connect 29 0 41 0;
#X connect 30 0 31 0;
#X connect 30 0 42 0;
#X connect 31 0 32 0;
#X connect 31 0 37 0;
#X connect 33 0 0 0;
#X connect 33 0 45 0;
#X connect 34 0 0 0;
#X connect 34 0 45 0;
#X connect 35 0 0 0;
#X connect 35 0 45 0;
#X connect 36 0 0 0;
#X connect 36 0 45 0;
#X connect 37 0 0 0;
#X connect 37 0 45 0;
#X connect 38 0 0 0;
#X connect 38 0 45 0;
#X connect 39 0 0 0;
#X connect 39 0 45 0;
#X connect 40 0 0 0;
#X connect 40 0 45 0;
#X connect 41 0 0 0;
#X connect 41 0 45 0;
#X connect 42 0 0 0;
#X connect 42 0 45 0;
#X connect 43 0 0 0;
#X connect 43 0 45 0;
#X connect 44 0 0 0;
#X connect 44 0 45 0;
#X connect 45 0 2 1;
