#N canvas 0 787 959 984 12;
#X obj 86 48 inlet~;
#X obj 86 73 rfft~;
#X obj 86 98 cyclone/cartopol~;
#X obj 83 195 tabsend~ magnitude;
#X obj 201 133 tabsend~ fase;
#N canvas 0 56 450 250 (subpatch) 0;
#X array magnitude 1 float 3;
#A 0 0;
#X coords 0 1 1 -1 200 140 1 0 0;
#X restore 59 266 graph;
#N canvas 0 50 450 250 (subpatch) 0;
#X array fase 1 float 3;
#A 0 0;
#X coords 0 1 1 -1 200 140 1;
#X restore 315 267 graph;
#X obj 370 68 block~ \$1;
#X obj 561 57 loadbang;
#X obj 561 82 \$1;
#X obj 561 107 max 64;
#X msg 561 132 \; magnitude resize \$1 \; fase resize \$1 \;;
#X obj 146 533 array max magnitude;
#X obj 146 498 bng 15 250 50 0 empty empty empty 17 7 0 10 -262144
-1 -1;
#X floatatom 146 558 5 0 0 0 - - -;
#X floatatom 273 558 5 0 0 1 indice - -;
#X text 52 560 valor;
#X obj 273 582 expr $f1*44100/\$1;
#X floatatom 273 607 5 0 0 0 - - -;
#X text 409 582 Converte pra frequência;
#X text 324 609 Obtém a frequência fundamental;
#X msg 566 308 \$1;
#X obj 566 333 print;
#X connect 0 0 1 0;
#X connect 1 0 2 0;
#X connect 2 0 3 0;
#X connect 2 1 4 0;
#X connect 8 0 9 0;
#X connect 9 0 10 0;
#X connect 10 0 11 0;
#X connect 12 0 14 0;
#X connect 12 1 15 0;
#X connect 13 0 12 0;
#X connect 15 0 17 0;
#X connect 17 0 18 0;
#X connect 21 0 22 0;
