#N canvas 951 56 959 984 10;
#X obj 46 264 inlet~;
#X obj 47 556 outlet~;
#X obj 46 333 *~ 1;
#X obj 78 376 *~ 1;
#X obj 110 419 *~ 1;
#X obj 142 462 *~ 1;
#X obj 174 505 *~ 1;
#X obj 67 83 vsl 15 128 1e-05 1 1 1 empty empty 0kHz 0 -9 0 10 -262144
-1 -1 0 1;
#X obj 99 88 vsl 15 128 1e-05 1 1 1 empty empty 6kHz 0 -9 0 10 -262144
-1 -1 0 1;
#X obj 131 88 vsl 15 128 1e-05 1 1 1 empty empty 11kHz 0 -9 0 10 -262144
-1 -1 0 1;
#X obj 163 88 vsl 15 128 1e-05 1 1 1 empty empty 17kHz 0 -9 0 10 -262144
-1 -1 0 1;
#X obj 195 88 vsl 15 128 1e-05 1 1 1 empty empty 22kHz 0 -9 0 10 -262144
-1 -1 0 1;
#X obj 46 310 2polos2zeros~ 0.6682 0;
#X obj 78 353 2polos2zeros~ 0.8223 0.7854;
#X obj 142 439 2polos2zeros~ 0.8223 2.3562;
#X obj 174 483 2polos2zeros~ 0.6682 3.1416;
#X obj 110 396 2polos2zeros~ 0.7836 1.5708;
#X obj 522 51 loadbang;
#X msg 522 74 args;
#X obj 522 97 pdcontrol;
#X text 44 11 Nome: Caio Túlio de Deus Andrade;
#X text 306 12 NUSP:9797232;
#N canvas 0 56 959 463 calcula_phis 0;
#X obj 165 53 inlet;
#X obj 165 76 ofelia f \; phi = ofTable() \; for i=1 \, #a do \; phi[i]
= 2 * math.pi * a[i]/ 44000 \; end \; return phi \;;
#X obj 166 164 outlet;
#X connect 0 0 1 0;
#X connect 1 0 2 0;
#X restore 513 134 pd calcula_phis;
#X text 549 25 Dado frequencias centrais \, calcula phi[f] = 2 pi *
f / R;
#X obj 513 176 trigger l l;
#N canvas 921 56 959 463 calcula_media 0;
#X obj 181 68 inlet;
#X obj 157 299 outlet;
#X obj 160 96 ofelia f \; media = ofTable() \; succ = 0 \; for i=1
\, #a do \; if a[i] < math.pi/2 then \; succ = a[i+1] \; else \; succ
= a[i-1] \; end \; media[i] = (a[i] + succ)/2 end \; return media \;
;
#X connect 0 0 2 0;
#X connect 2 0 1 0;
#X restore 670 201 pd calcula_media;
#X obj 114 272 Botimo;
#X obj 549 210 unpack 0 0 0 0 0;
#X floatatom 297 230 5 0 0 0 - - -;
#X floatatom 375 243 5 0 0 0 - - -;
#X floatatom 458 250 5 0 0 0 - - -;
#X floatatom 541 249 5 0 0 0 - - -;
#X floatatom 629 258 5 0 0 0 - - -;
#X obj 338 212 unpack 0 0 0 0 0;
#X floatatom 258 233 5 0 0 0 - - -;
#X floatatom 334 244 5 0 0 0 - - -;
#X floatatom 417 252 5 0 0 0 - - -;
#X floatatom 502 251 5 0 0 0 - - -;
#X floatatom 592 255 5 0 0 0 - - -;
#X obj 261 268 pack;
#X obj 352 266 pack;
#X obj 426 270 pack;
#X obj 516 273 pack;
#X obj 596 283 pack;
#X obj 163 330 Botimo;
#X obj 188 372 Botimo;
#X obj 219 414 Botimo;
#X obj 327 442 Botimo;
#X connect 0 0 12 0;
#X connect 0 0 13 0;
#X connect 0 0 14 0;
#X connect 0 0 15 0;
#X connect 0 0 16 0;
#X connect 2 0 1 0;
#X connect 3 0 1 0;
#X connect 4 0 1 0;
#X connect 5 0 1 0;
#X connect 6 0 1 0;
#X connect 7 0 2 1;
#X connect 8 0 3 1;
#X connect 9 0 4 1;
#X connect 10 0 5 1;
#X connect 11 0 6 1;
#X connect 12 0 2 0;
#X connect 13 0 3 0;
#X connect 14 0 5 0;
#X connect 15 0 6 0;
#X connect 16 0 4 0;
#X connect 17 0 18 0;
#X connect 18 0 19 0;
#X connect 19 0 22 0;
#X connect 22 0 24 0;
#X connect 24 0 33 0;
#X connect 24 1 25 0;
#X connect 25 0 27 0;
#X connect 26 0 12 1;
#X connect 27 0 28 0;
#X connect 27 1 29 0;
#X connect 27 2 30 0;
#X connect 27 3 31 0;
#X connect 27 4 32 0;
#X connect 28 0 39 1;
#X connect 29 0 40 1;
#X connect 30 0 41 1;
#X connect 31 0 42 1;
#X connect 32 0 43 1;
#X connect 33 0 34 0;
#X connect 33 1 35 0;
#X connect 33 2 36 0;
#X connect 33 3 37 0;
#X connect 33 4 38 0;
#X connect 34 0 39 0;
#X connect 34 0 12 2;
#X connect 35 0 40 0;
#X connect 35 0 13 2;
#X connect 36 0 41 0;
#X connect 36 0 16 2;
#X connect 37 0 42 0;
#X connect 37 0 14 2;
#X connect 38 0 43 0;
#X connect 38 0 15 2;
#X connect 39 0 26 0;
#X connect 40 0 44 0;
#X connect 41 0 45 0;
#X connect 42 0 46 0;
#X connect 43 0 47 0;
#X connect 44 0 13 1;
#X connect 45 0 16 1;
#X connect 46 0 14 1;
#X connect 47 0 15 1;
#X coords 0 -1 1 1 180 180 1 50 50;
