#N canvas 0 56 1920 985 10;
#X obj 40 267 inlet~;
#X obj 200 521 outlet~;
#X obj 152 332 *~ 1;
#X obj 184 375 *~ 1;
#X obj 216 418 *~ 1;
#X obj 248 461 *~ 1;
#X obj 280 504 *~ 1;
#X obj 64 93 vsl 15 128 1e-05 1 1 1 empty empty 0kHz 0 -9 0 10 -262144
-1 -1 10700 1;
#X obj 96 98 vsl 15 128 1e-05 1 1 1 empty empty 6kHz 0 -9 0 10 -262144
-1 -1 8100 1;
#X obj 128 98 vsl 15 128 1e-05 1 1 1 empty empty 11kHz 0 -9 0 10 -262144
-1 -1 9600 1;
#X obj 162 92 vsl 15 128 1e-05 1 1 1 empty empty 17kHz 0 -9 0 10 -262144
-1 -1 11300 1;
#X obj 192 98 vsl 15 128 1e-05 1 1 1 empty empty 22kHz 0 -9 0 10 -262144
-1 -1 10100 1;
#X obj 152 309 2polos2zeros~ 0.6682 0;
#X obj 184 352 2polos2zeros~ 0.8223 0.7854;
#X obj 248 438 2polos2zeros~ 0.8223 2.3562;
#X obj 280 482 2polos2zeros~ 0.6682 3.1416;
#X obj 216 395 2polos2zeros~ 0.7836 1.5708;
#X obj 935 46 loadbang;
#X msg 935 69 args;
#X obj 935 92 pdcontrol;
#X text 43 23 Nome: Caio Túlio de Deus Andrade;
#X text 305 24 NUSP:9797232;
#X text 1057 124 Dado frequencias centrais \, calcula phi[f] = 2 pi
* f / R;
#X obj 903 171 trigger l l, f 8;
#X obj 540 268 unpack 0 0 0 0 0;
#X floatatom 513 316 5 0 0 0 - - -;
#X floatatom 565 318 5 0 0 0 - - -;
#X floatatom 610 317 5 0 0 0 - - -;
#X floatatom 654 317 5 0 0 0 - - -;
#X floatatom 697 318 5 0 0 0 - - -;
#X obj 346 913 outlet~;
#X obj 42 645 *~ 1;
#X obj 74 688 *~ 1;
#X obj 106 731 *~ 1;
#X obj 138 774 *~ 1;
#X obj 170 817 *~ 1;
#X obj 42 622 2polos2zeros~ 0.6682 0;
#X obj 74 665 2polos2zeros~ 0.8223 0.7854;
#X obj 138 751 2polos2zeros~ 0.8223 2.3562;
#X obj 170 795 2polos2zeros~ 0.6682 3.1416;
#X obj 106 708 2polos2zeros~ 0.7836 1.5708;
#X obj 523 392 Botimo;
#X obj 525 368 pack;
#X obj 579 365 pack;
#X obj 624 366 pack;
#X obj 667 368 pack;
#X obj 713 367 pack;
#X obj 579 388 Botimo;
#X obj 624 390 Botimo;
#X obj 667 391 Botimo;
#X obj 714 391 Botimo;
#X text 436 315 Psi medio;
#X obj 1159 261 unpack 0 0 0 0 0;
#X floatatom 1110 298 5 0 0 0 - - -;
#X floatatom 1154 300 5 0 0 0 - - -;
#X floatatom 1202 297 5 0 0 0 - - -;
#X floatatom 1245 300 5 0 0 0 - - -;
#X floatatom 1288 300 5 0 0 0 - - -;
#X text 1062 301 Psis;
#X obj 522 417 s \$0_b1, f 6;
#X obj 579 417 s \$0_b2;
#X obj 627 413 s \$0_b3;
#X obj 680 416 s \$0_b4;
#X obj 732 416 s \$0_b5;
#X obj 1110 325 s \$0_p1, f 5;
#X obj 1154 324 s \$0_p2, f 5;
#X obj 1202 323 s \$0_p3, f 5;
#X obj 1245 323 s \$0_p4, f 5;
#X obj 1288 322 s \$0_p5, f 5;
#X floatatom 282 279 5 0 0 0 psi_1 #0_p1 -;
#X floatatom 347 329 5 0 0 0 psi_2 #0_p2 -;
#X floatatom 378 370 5 0 0 0 psi_3 #0_p3 -;
#X floatatom 409 412 5 0 0 0 psi_4 #0_p4 -;
#X floatatom 440 461 5 0 0 0 psi_5 #0_p5 -;
#X floatatom 171 594 5 0 0 0 psi_1 #0_p1 -;
#X floatatom 233 642 5 0 0 0 psi_2 #0_p2 -;
#X floatatom 263 685 5 0 0 0 psi_3 #0_p3 -;
#X floatatom 301 725 5 0 0 0 psi_4 #0_p4 -;
#X floatatom 327 772 5 0 0 0 psi_5 #0_p5 -;
#X floatatom 110 589 5 0 0 0 b1 #0_b1 -;
#X floatatom 215 283 5 0 0 0 b1 #0_b1 -;
#X floatatom 150 641 5 0 0 0 b2 #0_b2 -;
#X floatatom 180 685 5 0 0 0 b3 #0_b3 -;
#X floatatom 220 728 5 0 0 0 b4 #0_b4 -;
#X floatatom 249 767 5 0 0 0 b5 #0_b5 -;
#X obj 460 333 r \$0_p1;
#X obj 530 341 r \$0_p2;
#X obj 605 338 r \$0_p3;
#X obj 661 342 r \$0_p4;
#X obj 713 343 r \$0_p5;
#X text 774 377 Valores de B. Combinamos psis e psis medios para obtermos
o b otimo;
#N canvas 0 56 959 463 \$0_calcula_psis 0;
#X obj 165 53 inlet;
#X obj 165 76 ofelia f \; phi = ofTable() \; for i=1 \, #a do \; phi[i]
= 2 * math.pi * a[i]/ 44000 \; end \; return phi \;;
#X obj 166 164 outlet;
#X connect 0 0 1 0;
#X connect 1 0 2 0;
#X restore 915 128 pd \$0_calcula_psis;
#N canvas 552 277 959 463 \$0_calcula_media 0;
#X obj 336 43 inlet;
#X obj 334 360 outlet;
#X obj 336 80 ofelia f \; media = ofTable() \; succ = 0 \; for i=1
\, #a do \; if a[i] < math.pi/2 then \; succ = a[i+1] \; else \; succ
= a[i-1] \; end \; media[i] = (a[i] + succ)/2 \; end \; if a[5] < math.pi/2
then \; media[5] = (a[5] + math.pi)/2 end \; if a[1] >= math.pi/2 then
\; media[1] = (a[1]/2) \; end \; return media \;;
#X connect 0 0 2 0;
#X connect 2 0 1 0;
#X restore 538 246 pd \$0_calcula_media;
#X text 665 242 Calcula o psi medio utilizando a heuristica descrita
no enunciado;
#X floatatom 262 329 5 0 0 0 b2 #0_b2 -;
#X floatatom 294 374 5 0 0 0 b3 #0_b3 -;
#X floatatom 325 413 5 0 0 0 b4 #0_b4 -;
#X floatatom 359 456 5 0 0 0 b5 #0_b5 -;
#X connect 0 0 12 0;
#X connect 0 0 13 0;
#X connect 0 0 14 0;
#X connect 0 0 15 0;
#X connect 0 0 16 0;
#X connect 0 0 36 0;
#X connect 0 0 37 0;
#X connect 0 0 40 0;
#X connect 0 0 38 0;
#X connect 0 0 39 0;
#X connect 2 0 1 0;
#X connect 3 0 1 0;
#X connect 4 0 1 0;
#X connect 5 0 1 0;
#X connect 6 0 1 0;
#X connect 7 0 2 1;
#X connect 7 0 31 1;
#X connect 8 0 3 1;
#X connect 8 0 32 1;
#X connect 9 0 4 1;
#X connect 9 0 33 1;
#X connect 10 0 5 1;
#X connect 10 0 34 1;
#X connect 11 0 6 1;
#X connect 11 0 35 1;
#X connect 12 0 2 0;
#X connect 13 0 3 0;
#X connect 14 0 5 0;
#X connect 15 0 6 0;
#X connect 16 0 4 0;
#X connect 17 0 18 0;
#X connect 18 0 19 0;
#X connect 19 0 91 0;
#X connect 23 0 92 0;
#X connect 23 1 52 0;
#X connect 24 0 25 0;
#X connect 24 1 26 0;
#X connect 24 2 27 0;
#X connect 24 3 28 0;
#X connect 24 4 29 0;
#X connect 25 0 42 1;
#X connect 26 0 43 1;
#X connect 27 0 44 1;
#X connect 28 0 45 1;
#X connect 29 0 46 1;
#X connect 31 0 30 0;
#X connect 32 0 30 0;
#X connect 33 0 30 0;
#X connect 34 0 30 0;
#X connect 35 0 30 0;
#X connect 36 0 31 0;
#X connect 37 0 32 0;
#X connect 38 0 34 0;
#X connect 39 0 35 0;
#X connect 40 0 33 0;
#X connect 41 0 59 0;
#X connect 42 0 41 0;
#X connect 43 0 47 0;
#X connect 44 0 48 0;
#X connect 45 0 49 0;
#X connect 46 0 50 0;
#X connect 47 0 60 0;
#X connect 48 0 61 0;
#X connect 49 0 62 0;
#X connect 50 0 63 0;
#X connect 52 0 53 0;
#X connect 52 1 54 0;
#X connect 52 2 55 0;
#X connect 52 3 56 0;
#X connect 52 4 57 0;
#X connect 53 0 64 0;
#X connect 54 0 65 0;
#X connect 55 0 66 0;
#X connect 56 0 67 0;
#X connect 57 0 68 0;
#X connect 69 0 12 2;
#X connect 70 0 13 2;
#X connect 71 0 16 2;
#X connect 72 0 14 2;
#X connect 73 0 15 2;
#X connect 74 0 36 2;
#X connect 75 0 37 2;
#X connect 76 0 40 2;
#X connect 77 0 38 2;
#X connect 78 0 39 2;
#X connect 79 0 36 1;
#X connect 80 0 12 1;
#X connect 81 0 37 1;
#X connect 82 0 40 1;
#X connect 83 0 38 1;
#X connect 84 0 39 1;
#X connect 85 0 42 0;
#X connect 86 0 43 0;
#X connect 87 0 44 0;
#X connect 88 0 45 0;
#X connect 89 0 46 0;
#X connect 91 0 23 0;
#X connect 92 0 24 0;
#X connect 94 0 13 1;
#X connect 95 0 16 1;
#X connect 96 0 14 1;
#X connect 97 0 15 1;
#X coords 0 -1 1 1 180 180 1 50 50;
