#N canvas 0 0 913 457 12;
#X obj 10 5 bng 30 250 50 0 empty \$0_rotulo empty 45 16 0 28 -262130
-1 -66577;
#X obj 114 53 loadbang;
#X obj 114 122 symbol \$1;
#X msg 230 183 set;
#X msg 191 210 addsemi;
#X msg 494 269 \; \$1_rotulo label \$2;
#X obj 554 186 symbol \$2;
#X obj 494 218 pack \$0 s;
#X obj 114 79 t b b b b, f 32;
#X obj 279 216 pdcontrol;
#X msg 279 191 dir;
#X obj 152 260 pack s s, f 24;
#X obj 114 152 t s s b b, f 17;
#X msg 152 289 add pd open \$1 \$2;
#X msg 114 329 add pd-\$1 vis 1;
#X msg 394 381 \; pd- vis 1 \;;
#X obj 317 338 del 1;
#X msg 10 374 \; pd open  /home/mqz/cursos/cm/icsm \;;
#X connect 0 0 17 0;
#X connect 0 0 15 0;
#X connect 1 0 8 0;
#X connect 2 0 12 0;
#X connect 3 0 17 0;
#X connect 3 0 15 0;
#X connect 4 0 17 0;
#X connect 4 0 15 0;
#X connect 6 0 7 1;
#X connect 7 0 5 0;
#X connect 8 0 2 0;
#X connect 8 1 10 0;
#X connect 8 2 7 0;
#X connect 8 3 6 0;
#X connect 9 0 11 1;
#X connect 10 0 9 0;
#X connect 11 0 13 0;
#X connect 12 0 14 0;
#X connect 12 1 11 0;
#X connect 12 2 4 0;
#X connect 12 3 3 0;
#X connect 13 0 17 0;
#X connect 14 0 15 0;
#X connect 16 0 15 0;
#X coords 0 -1 1 1 800 40 2 0 0;
