#N canvas 0 0 885 362 12;
#X declare -lib ofelia;
#X obj 3 33 tgl 24 0 empty empty DSP 28 12 0 18 -262130 -1 -1 1 1;
#X obj 478 52 loadbang;
#X text 582 130 <- depende de ->;
#X obj 478 131 ofGetDspState;
#X text 475 9 Sincronização inicial com o estado global do DSP (toggle
da janela principal do Pd)., f 50;
#X obj 3 107 sel;
#X text 165 9 Controla uma chave liga-desliga sincronizada entre todos
os patches. Para isso \, cada troca de estados é propagada para todos
as instâncias APENAS quando corresponde a uma mudança real do estado
do Pd. Dessa forma \, loops são eliminados \, pois quando essa instância
receber a mensagem gerada por ela mesma \, o estado global do Pd já
terá sido atualizado., f 36;
#X obj 3 232 route dsp;
#X obj 3 203 r pd;
#X obj 3 5 r icsm_dsp;
#X obj 21 76 r icsm_dsp_sel;
#X obj 478 77 del 1;
#X obj 701 131 declare -lib ofelia;
#X msg 478 166 \; icsm_dsp_sel \$1 \; icsm_dsp \$1;
#X msg 21 137 \; icsm_dsp_sel \$1 \; pd dsp \$1;
#X msg 3 257 \; icsm_dsp \$1;
#X text 125 203 Sincronização com o estado global do DSP a cada alteração
(em outra chave ou na janela principal do Pd)., f 36;
#X connect 0 0 5 0;
#X connect 1 0 11 0;
#X connect 3 0 13 0;
#X connect 5 1 14 0;
#X connect 7 0 15 0;
#X connect 8 0 7 0;
#X connect 9 0 0 0;
#X connect 10 0 5 1;
#X connect 11 0 3 0;
#X coords 0 -1 1 1 65 30 2 0 30;
