#N canvas 0 0 1280 700 16;
#X declare -lib windowing;
#X declare -lib zexy;
#X declare -lib zexy;
#X declare -lib zexy;
#X obj 0 0 icsm_cabecalho;
#X obj 100 200 cnv 15 14 14 empty empty Janelamento_e_vazamento_espectral
0 0 0 34 -262144 -38 0;
#N canvas 0 0 1280 700 icsm123A 0;
#X text 6 801 continua:;
#X obj 139 803 bng 30 250 50 0 empty empty empty 17 7 0 10 -262130
-1 -1;
#X msg 189 801 \; pd-icsm123A vis 1;
#N canvas 0 0 1280 700 icsm123B 0;
#X text 6 801 continua:;
#X obj 139 803 bng 30 250 50 0 empty empty empty 17 7 0 10 -262130
-1 -1;
#X msg 189 801 \; pd-icsm123B vis 1;
#N canvas 0 0 1280 700 icsm123C 0;
#X text 6 801 continua:;
#X obj 139 803 bng 30 250 50 0 empty empty empty 17 7 0 10 -262130
-1 -1;
#X msg 189 801 \; pd-icsm123C vis 1;
#N canvas 0 0 1280 700 icsm123D 0;
#X text 6 801 continua:;
#X obj 139 803 bng 30 250 50 0 empty empty empty 17 7 0 10 -262130
-1 -1;
#X msg 189 801 \; pd-icsm123D vis 1;
#N canvas 0 0 1280 700 icsm123E 0;
#X text 6 801 continua:;
#X obj 139 803 bng 30 250 50 0 empty empty empty 17 7 0 10 -262130
-1 -1;
#X msg 189 801 \; pd-icsm123E vis 1;
#N canvas 0 0 1280 700 icsm123F 0;
#X text 6 801 continua:;
#X obj 139 803 bng 30 250 50 0 empty empty empty 17 7 0 10 -262130
-1 -1;
#X msg 189 801 \; pd-icsm123F vis 1;
#N canvas 0 0 1280 700 icsm123G 0;
#X text 6 801 continua:;
#X obj 139 803 bng 30 250 50 0 empty empty empty 17 7 0 10 -262130
-1 -1;
#X msg 189 801 \; pd-icsm123G vis 1;
#X obj 100 110 cnv 15 14 14 empty empty Exemplos_de_janelas_alternativas
0 0 0 28 -262144 -38 0;
#N canvas 0 0 450 250 (subpatch) 0;
#X array \$0_123Z_espectro_interpolado 4096 float 2;
#X coords 0 1 4096 0 1074 100 1 0 0;
#X restore 104 452 graph;
#X obj 104 572 hsl 1074 20 0 44100 0 0 empty \$0_123Z_freq_r Frequência
-2 -8 0 16 -262144 -1 -1 0 0;
#X floatatom 101 594 8 0 0 1 Hz - #0_123Z_freq;
#N canvas 0 0 952 368 \$0_123Z_síntese 0;
#X obj 15 67 vradio 24 1 1 5 \$0_123Z_mux \$0_123Z_mux_r empty 0 -8
0 10 -262130 -1 -1 0;
#X text 47 67 SILÊNCIO;
#X text 47 116 SENOIDE;
#X text 47 164 QUADRADA;
#X obj 12 12 icsm_dsp;
#X text 47 141 SERRA;
#X obj 145 15 tgl 24 0 \$0_123Z_mute \$0_123Z_mute_r MUTE 28 12 0 20
-262130 -1 -1 0 1;
#X obj 145 65 vsl 20 95 0 1 0 0 \$0_123Z_vol \$0_123Z_vol_r Volume
0 -12 0 16 -262130 -1 -1 0 0;
#N canvas 0 0 1155 560 \$0_123Z_análise 0;
#X obj 37 296 fft~;
#X obj 37 325 cyclone/cartopol~;
#X text 97 384 normaliza espectro;
#X text 683 22 tamanho do bloco janelado;
#X obj 37 384 /~ 64;
#X obj 713 285 block~ 64;
#X msg 713 253 set \$1 1 1;
#X obj 684 47 r \$0_123Z_bloco;
#N canvas 0 0 873 633 \$0_123Z_interpola 0;
#X obj 37 37 inlet~;
#X text 403 287 interpola espectro?;
#X obj 404 310 r \$0_123Z_interp;
#X obj 640 40 block~ 4096;
#X obj 37 276 fft~;
#X obj 37 305 cyclone/cartopol~;
#X obj 47 491 bang~;
#X text 97 334 normaliza espectro;
#X obj 37 176 *~;
#X obj 63 105 bang~;
#X obj 37 563 tabwrite~ \$0_123Z_espectro_interpolado;
#X text 413 16 tamanho da janela;
#X obj 415 130 ofelia f \; local x=ofArray("\$0_123Z_sinal_janelado")
\; for n=0 \, a-1 do x[n] = 1 end \; for n=a \, x:getSize()-1 do x[n]
= 0 end \;;
#X obj 63 134 tabplay~ \$0_123Z_sinal_janelado;
#X obj 63 211 bang~;
#X obj 63 244 tabwrite~ \$0_123Z_sinal;
#X obj 47 530 spigot;
#X obj 37 334 /~ 64;
#X obj 415 72 t f f;
#X obj 404 339 t f f;
#X obj 404 368 sel 0;
#X obj 404 437 f \$0;
#X msg 404 466 \; \$1_123Z_espectro_interpolado const 0;
#X obj 404 397 del 4096 1 samp;
#X obj 415 43 r \$0_123Z_bloco;
#X obj 147 409 bang~;
#X obj 147 438 s \$0_123Z_bang;
#X connect 0 0 8 0;
#X connect 2 0 19 0;
#X connect 4 0 5 0;
#X connect 4 1 5 1;
#X connect 5 0 17 0;
#X connect 6 0 16 0;
#X connect 8 0 4 0;
#X connect 8 0 15 0;
#X connect 9 0 13 0;
#X connect 13 0 8 1;
#X connect 14 0 15 0;
#X connect 16 0 10 0;
#X connect 17 0 10 0;
#X connect 18 0 12 0;
#X connect 18 1 17 1;
#X connect 19 0 20 0;
#X connect 19 1 16 1;
#X connect 20 0 23 0;
#X connect 21 0 22 0;
#X connect 23 0 21 0;
#X connect 24 0 18 0;
#X connect 25 0 26 0;
#X restore 57 256 pd \$0_123Z_interpola;
#X obj 37 493 tabwrite~ \$0_123Z_espectro;
#X obj 742 221 array size \$0_123Z_espectro;
#X obj 37 207 *~;
#X obj 38 13 inlet~;
#X obj 65 173 multiplex~ _ _ _ _;
#X obj 65 46 sig~ 1;
#X obj 136 45 declare -lib windowing;
#X obj 125 81 windowing/bartlett~;
#X obj 184 111 windowing/hanning~;
#X obj 242 141 windowing/hamming~;
#X obj 265 173 declare -lib zexy;
#X text 472 19 tipo de janela;
#X obj 474 76 t b f;
#X obj 474 325 tabwrite~ \$0_123Z_janela;
#X obj 771 191 array size \$0_123Z_janela;
#X obj 684 86 t b f f f;
#X obj 84 357 r \$0_123Z_bloco;
#X obj 474 47 r \$0_123Z_janela_s;
#X obj 75 459 r \$0_123Z_bang;
#X obj 473 412 array define \$0_123Z_espectro 64;
#X text 472 379 define o vetor espectro mas não visualiza (talvez
remover);
#X connect 0 0 1 0;
#X connect 0 1 1 1;
#X connect 1 0 4 0;
#X connect 4 0 9 0;
#X connect 6 0 5 0;
#X connect 7 0 24 0;
#X connect 11 0 8 0;
#X connect 11 0 0 0;
#X connect 12 0 11 0;
#X connect 13 0 11 1;
#X connect 13 0 22 0;
#X connect 14 0 13 0;
#X connect 14 0 16 0;
#X connect 14 0 17 0;
#X connect 14 0 18 0;
#X connect 16 0 13 1;
#X connect 17 0 13 2;
#X connect 18 0 13 3;
#X connect 21 0 22 0;
#X connect 21 1 13 0;
#X connect 24 0 22 0;
#X connect 24 1 6 0;
#X connect 24 2 10 0;
#X connect 24 3 23 0;
#X connect 25 0 4 1;
#X connect 26 0 21 0;
#X connect 27 0 9 0;
#X restore 22 297 pd \$0_123Z_análise;
#X obj 265 27 vradio 20 1 1 7 empty \$0_123Z_bloco_r N= -26 10 0 20
-262130 -1 -1 0;
#X text 289 23 64;
#X text 289 62 256;
#X text 289 82 512;
#X text 289 101 1024;
#X text 289 122 2048;
#X text 289 143 4096;
#X floatatom 275 185 7 0 0 1 Hz #0_123Z_res_r -;
#N canvas 0 0 509 424 init 0;
#X obj 72 41 loadbang;
#X obj 72 70 f \$0;
#X obj 228 41 r pd;
#X obj 228 70 route dsp;
#X obj 228 99 bang;
#X msg 72 159 \; \$1_123Z_mute_r 0 \; \$1_123Z_vol_r 0 \; \$1_123Z_mux_r
0 \; \$1_123Z_bloco_r 0 \; \$1_123Z_freq_r 0 \; \$1_123Z_interp_r 1
\; \$1_123Z_janela_r 0 \; \$1_123Z_espectro const 0 \; \$1_123Z_espectro_interpolado
const 0 \; \$1_123Z_sinal const 0;
#X connect 0 0 1 0;
#X connect 1 0 5 0;
#X connect 2 0 3 0;
#X connect 3 0 4 0;
#X connect 4 0 1 0;
#X restore 583 639 pd init;
#X text 171 170 Resolução Espectral=, f 10;
#X obj 115 231 tgl 24 0 \$0_123Z_interp \$0_123Z_interp_r Interpola?
-102 12 0 16 -262130 -1 -1 1 1;
#X text 289 42 128;
#N canvas 0 0 507 544 \$0_123Z_síntese 0;
#X obj 213 220 sgn~;
#X obj 163 158 *~ 2;
#X obj 163 188 -~ 1;
#X obj 235 259 declare -lib zexy;
#X obj 163 129 phasor~;
#X obj 114 129 osc~;
#X obj 15 388 *~;
#X msg 42 327 \$1 100;
#X obj 42 356 line~;
#X msg 164 68 \$1 100;
#X obj 164 97 line~;
#X obj 164 35 r \$0_123Z_freq;
#X obj 15 5 r \$0_123Z_mux;
#X obj 42 295 r \$0_123Z_vol;
#X obj 65 417 outlet~;
#X obj 15 488 dac~;
#X obj 15 457 *~;
#X msg 255 405 \$1 100;
#X obj 255 434 line~;
#X obj 255 375 expr 1-$f1;
#X obj 255 340 r \$0_123Z_mute;
#X obj 15 259 multiplex~ 0 1 2 3 4;
#X obj 65 68 sig~ 1;
#X connect 0 0 21 4;
#X connect 1 0 2 0;
#X connect 2 0 0 0;
#X connect 2 0 21 3;
#X connect 4 0 1 0;
#X connect 5 0 21 2;
#X connect 6 0 14 0;
#X connect 6 0 16 0;
#X connect 7 0 8 0;
#X connect 8 0 6 1;
#X connect 9 0 10 0;
#X connect 10 0 5 0;
#X connect 10 0 4 0;
#X connect 11 0 9 0;
#X connect 12 0 21 0;
#X connect 13 0 7 0;
#X connect 16 0 15 0;
#X connect 16 0 15 1;
#X connect 17 0 18 0;
#X connect 18 0 16 1;
#X connect 19 0 17 0;
#X connect 20 0 19 0;
#X connect 21 0 6 0;
#X connect 22 0 21 1;
#X restore 21 264 pd \$0_123Z_síntese;
#X obj 350 47 vradio 24 1 1 4 \$0_123Z_janela_s \$0_123Z_janela_r empty
0 -8 0 10 -262130 -1 -1 0;
#X text 382 47 RETANGULAR;
#X text 382 72 BARTLETT;
#X text 382 120 HAMMING;
#X text 382 97 HANN;
#X text 349 18 JANELA:;
#X text 516 121 tamanho do bloco janelado;
#X obj 517 151 expr 64*pow(2 \, $f1) \; 44100/(64*pow(2 \, $f1));
#X obj 734 205 s \$0_123Z_res_r;
#X obj 517 206 s \$0_123Z_bloco;
#X text 47 92 x[n]=1;
#X connect 9 0 29 0;
#X connect 21 0 8 0;
#X connect 29 0 31 0;
#X connect 29 1 30 0;
#X coords 0 -1 1 1 500 220 2 0 0;
#X restore 678 85 pd \$0_123Z_síntese;
#N canvas 0 0 450 250 (subpatch) 0;
#X array \$0_123Z_sinal_janelado 4096 float 2;
#X coords 0 1.1 4096 -1.1 1074 100 1 0 0;
#X restore 104 322 graph;
#N canvas 0 0 450 250 (subpatch) 0;
#X array \$0_123Z_sinal 4096 float 2;
#X coords 0 1.1 4096 -1.1 1074 100 1 0 0;
#X restore 104 322 graph;
#N canvas 0 0 450 250 (subpatch) 0;
#X array \$0_123Z_janela 64 float 2;
#X coords 0 1.1 64 0 200 140 1 0 0;
#X restore 463 165 graph;
#X text 449 166 1;
#X text 449 291 0;
#X text 100 140 Essa implementação permite explorar o efeito das
janelas RETANGULAR \, TRIANGULAR (BARTLETT) \, de HANN e HAMMING \,
observando as diferenças no vazamento espectral correspondente. Os
espectros aqui são todos interpolados (N=4096)., f 34;
#X connect 1 0 2 0;
#X connect 5 0 6 0;
#X coords 0 -1 1 1 180 36 2 0 800;
#X restore 1000 600 pd icsm123G;
#X obj 100 110 cnv 15 14 14 empty empty Janelamento_com_janelas_não_retangulares
0 0 0 28 -262144 -38 0;
#X text 100 400 Outra janela importante é obtida da forma do "cosseno
invertido e levantado" w[n] = ½ - ½·cos(2πn/N) para n=0 \, ...
\, N-1 \, e recebe o nome de JANELA DE HANN. Por ser um cosseno puro
de frequência f=1 ciclo por janela somado a uma componente dc \, essa
janela possui um espectro bastante concentrado \, ocupando exatamente
3 bins (f=-1 \, 0 \, 1) da DFT em dimensão N \, porém seu efeito
em um sinal mais longo traz também a "marca" do corte retangular \,
como é possível ver em seu espectro superamostrado., f 107;
#X text 100 160 Considerando o teorema da convolução \, surgem algumas
perguntas naturais: Existem janelas melhores do que a janela retangular?
Existem janelas que produzem menos vazamento espectral? Mais tecnicamente
\, existem funções w[n] que SELECIONAM um trecho do sinal mas possuem
ESPECTRO MAIS CONCENTRADO EM f=0? Todas as respostas a essas perguntas
passam por funções que satisfazem w[n]=0 fora do intervalo [0 \,
N) e que ATENUAM os valores do sinal na EXTREMIDADE desse intervalo
\, a fim de diminuir o efeito da DESCONTINUIDADE DE BORDA., f 107
;
#X text 100 520 A fim de melhorar a relação entre o LOBO CENTRAL
e os LOBOS LATERAIS \, HAMMING propôs uma formulação minimamente
alterada da janela de HANN \, com expressão w[n] = 1 - (1-a)·cos(2πn/N)
sendo a = 25/46 ~ 0.54. Essa constante cancela o PRIMEIRO LOBO LATERAL
(que produz o vazamento espectral mais proeminente) \, em troca de
um decaimento menos acentuado nos lobos mais distantes., f 107;
#X text 100 280 Uma das alternativas à janela retangular é chamada
de JANELA TRIANGULAR ou JANELA DE BARTLETT \, definida pela expressão
w[n] = 1-2·abs(n-N/2)/N. Não é muito difícil mostrar que a janela
triangular é a convolução de duas janelas retangulares de comprimento
N/2 \, e seu espectro normalizado será o quadrado do espectro da janela
retangular de comprimento N/2. Veremos a seguir essas relações entre
as duas janelas \, onde a janela triangular tem o LOBO CENTRAL mais
largo e os LOBOS LATERAIS mais baixos do que a janela retangular.,
f 107;
#X connect 1 0 2 0;
#X coords 0 -1 1 1 180 36 2 0 800;
#X restore 1000 600 pd icsm123F;
#X obj 100 110 cnv 15 14 14 empty empty Interpretação_Geométrica_da_Convolução
0 0 0 28 -262144 -38 0;
#X text 100 140 A operação de convolução entre sinais \, definida
pela expressão (x*y)[n] =, f 107;
#X obj 838 160 cnv 15 10 10 empty empty Σ 0 0 2 48 -262144 -1 0;
#X text 837 116 N-1;
#X text 837 166 m=0;
#X text 876 140 x[m]·y[n-m] \, possui um grande;
#X text 100 160 número de aplicações em processamento de sinais
\, além de uma série de, f 107;
#N canvas 0 0 450 250 (subpatch) 0;
#X array \$0_123V_z 1024 float 2;
#X coords 0 1.1 1024 -1.1 1074 80 1 0 0;
#X restore 104 512 graph;
#N canvas 0 0 450 250 (subpatch) 0;
#X array \$0_123V_x 1024 float 2;
#X coords 0 1.1 1024 -1.1 1074 80 1 0 0;
#X restore 104 312 graph;
#N canvas 0 0 450 250 (subpatch) 0;
#X array \$0_123V_y 1024 float 2;
#X coords 0 1.1 1024 -1.1 1074 80 1 0 0;
#X restore 104 412 graph;
#N canvas 0 0 1133 545 \$0_123V_interface 0;
#X obj 63 258 bang~;
#X obj 63 287 tabplay~ \$0_123V_x;
#X obj 263 287 tabplay~ \$0_123V_y;
#X obj 63 316 fft~;
#X obj 263 316 fft~;
#X obj 63 355 *~;
#X obj 103 355 *~;
#X obj 63 384 -~;
#X obj 263 355 *~;
#X obj 303 355 *~;
#X obj 263 384 +~;
#X text 108 377 multiplicação complexa, f 14;
#X obj 63 423 ifft~;
#X obj 151 452 bang~;
#X obj 63 481 tabwrite~ \$0_123V_z;
#X obj 15 15 icsm_dsp;
#X obj 93 19 bng 20 250 50 0 empty empty Limpa 24 10 0 16 -262144 -1
-1;
#X obj 93 44 f \$0;
#X msg 93 73 \; \$1_123V_x const 0 \; \$1_123V_y const 0;
#X text 63 171 Usa o teorema da convolução na forma z=x*y <==> Z=X·Y
para computar a "convolução rápida" \, ou seja \, z=IFFT(FFT(x)·FFT(y)).
, f 42;
#X obj 585 32 loadbang;
#X obj 585 61 f \$0;
#X obj 554 32 bng 15 250 50 0 empty empty empty 17 7 0 10 -262144 -1
-1;
#X obj 303 26 block~ 1024;
#X obj 63 452 /~ 1024;
#X msg 585 100 \; \$1_123V_x 0 1 0.9 0.8 0.7 0.6 0.5 0.4 0.3 0.2 0.1
\; \$1_123V_x 1015 0.1 0.2 0.3 0.4 0.5 0.6 0.7 0.8 0.9 \; \$1_123V_y
200 1 \; \$1_123V_y 400 -1 \; \$1_123V_y 600 0.5 \; \$1_123V_y 800
-0.5 \; \$1_123V_y 1000 0.25 \;;
#X connect 0 0 1 0;
#X connect 0 0 2 0;
#X connect 1 0 3 0;
#X connect 2 0 4 0;
#X connect 3 0 5 0;
#X connect 3 0 8 0;
#X connect 3 1 6 0;
#X connect 3 1 9 0;
#X connect 4 0 5 1;
#X connect 4 0 9 1;
#X connect 4 1 6 1;
#X connect 4 1 8 1;
#X connect 5 0 7 0;
#X connect 6 0 7 1;
#X connect 7 0 12 0;
#X connect 8 0 10 0;
#X connect 9 0 10 1;
#X connect 10 0 12 1;
#X connect 12 0 24 0;
#X connect 13 0 14 0;
#X connect 16 0 17 0;
#X connect 17 0 18 0;
#X connect 20 0 21 0;
#X connect 21 0 25 0;
#X connect 22 0 21 0;
#X connect 24 0 14 0;
#X coords 0 -1 1 1 160 40 2 10 10;
#X restore 104 595 pd \$0_123V_interface;
#N canvas 0 0 462 311 icsm123E+ 0;
#X obj 0 800 bng 15 250 50 0 empty empty * 4 9 0 14 -262144 -1 -1;
#X msg 189 801 \; pd-icsm123E+ vis 1;
#X obj 154 150 cnv 15 10 10 empty empty Σ 0 0 2 48 -262144 -1 0;
#X text 153 106 N-1;
#X text 153 156 m=0;
#X text 50 50 A expressão da convolução pode ser reescrita de forma
vetorial como, f 34;
#X text 81 129 x*y =;
#X text 192 130 x[m]·shift(y \, -m) \,;
#X text 50 190 onde shift(y \, -m) é o sinal y atrasado em m amostras.
, f 34;
#X connect 0 0 1 0;
#X coords 0 -1 1 1 15 15 2 0 800;
#X restore 689 204 pd icsm123E+;
#X text 100 180 propriedades matemáticas relevantes que discutiremos
mais para a frente. Nessa implementação \, podemos explorar uma das
interpretações geométricas da convolução ( ) \, que corresponde
a produzir várias cópias de um certo padrão a partir de uma descrição
das posições das cópias e de suas respectivas amplitudes. Para compreender
como isso funciona \, desenhe algum padrão fácil de reconhecer em
qualquer um dos sinais (x ou y) e marque alguns pontos esparsos no
outro sinal \, acompanhando o resultado da convolução z = x*y.,
f 107;
#X connect 1 0 2 0;
#X coords 0 -1 1 1 180 36 2 0 800;
#X restore 1000 600 pd icsm123E;
#X obj 100 110 cnv 15 14 14 empty empty Teorema_da_Convolução_(1ª_forma:_produto_no_domínio_do_tempo)
0 0 0 28 -262144 -38 0;
#X text 100 160 O TEOREMA DA CONVOLUÇÃO apresenta a resposta formal
à pergunta "Qual é o espectro de x·w?":, f 107;
#X obj 577 290 cnv 15 10 10 empty empty Σ 0 0 2 48 -262144 -1 0;
#X text 576 246 N-1;
#X text 576 296 f=0;
#X text 100 310 PROVA:;
#X obj 272 370 cnv 15 10 10 empty empty Σ 0 0 2 48 -262144 -1 0;
#X text 271 326 N-1;
#X text 195 350 Y[k] =;
#X text 271 376 n=0;
#X obj 465 370 cnv 15 10 10 empty empty Σ 0 0 2 48 -262144 -1 0;
#X text 464 326 N-1;
#X text 464 376 n=0;
#X text 560 263 _;
#X text 560 283 N;
#X text 307 350 y[n]·exp_-k[n]=;
#X obj 305 510 cnv 15 10 10 empty empty Σ 0 0 2 48 -262144 -1 0;
#X text 304 466 N-1;
#X obj 348 510 cnv 15 10 10 empty empty Σ 0 0 2 48 -262144 -1 0;
#X text 347 466 N-1;
#X text 268 483 _;
#X text 268 503 N;
#X text 268 482 1;
#X obj 491 510 cnv 15 10 10 empty empty Σ 0 0 2 48 -262144 -1 0;
#X text 490 466 N-1;
#X text 288 483 _;
#X text 288 503 N;
#X text 288 482 1;
#X text 245 490 =;
#X text 304 516 f=0;
#X text 347 516 g=0;
#X text 383 490 X[f]·W[g];
#X text 490 516 n=0;
#X text 526 490 exp_(f+g)[n]·exp_-k[n];
#X text 279 491 ·;
#X obj 285 590 cnv 15 10 10 empty empty Σ 0 0 2 48 -262144 -1 0;
#X text 284 546 N-1;
#X text 268 563 _;
#X text 268 583 N;
#X text 268 562 1;
#X text 245 570 =;
#X text 284 596 f=0;
#X text 1006 530 0 caso contrário;
#X obj 272 440 cnv 15 10 10 empty empty Σ 0 0 2 48 -262144 -1 0;
#X text 271 396 N-1;
#X text 271 446 n=0;
#X obj 312 440 cnv 15 10 10 empty empty ( 0 0 2 48 -262144 -1 0;
#X obj 512 440 cnv 15 10 10 empty empty ) 0 0 2 48 -262144 -1 0;
#X obj 345 440 cnv 15 10 10 empty empty Σ 0 0 2 48 -262144 -1 0;
#X text 344 396 N-1;
#X text 344 446 f=0;
#X text 328 421 _;
#X text 328 441 N;
#X text 380 420 X[f]·exp_f[n];
#X text 328 420 1;
#X obj 525 440 cnv 15 10 10 empty empty ( 0 0 2 48 -262144 -1 0;
#X obj 725 440 cnv 15 10 10 empty empty ) 0 0 2 48 -262144 -1 0;
#X obj 558 440 cnv 15 10 10 empty empty Σ 0 0 2 48 -262144 -1 0;
#X text 557 396 N-1;
#X text 541 421 _;
#X text 541 441 N;
#X text 541 420 1;
#X text 557 446 g=0;
#X text 593 420 W[g]·exp_g[n];
#X text 247 420 =;
#X text 500 350 x[n]·w[n]·exp_-k[n];
#X text 490 270 Y[k] =;
#X text 560 262 1;
#X text 612 270 X[f]·W[k-f].;
#X text 323 570 X[f]·W[k-f].;
#X text 100 200 TEOREMA: considere dois sinais x e w de N amostras
\, e o sinal y=x·w (y[n]=x[n]·w[n]) \, e sejam X \, W e Y as DFTs
de x \, w e y \, respectivamente. Então Y = (1/N)(X*W) \, onde X*W
é a convolução de X por W:, f 107;
#X text 740 420 ·exp_-k[n];
#X text 876 350 <- DFT(y) e definição de y[n];
#X text 966 420 <- IDFT(x) e IDFT(w);
#X text 926 490 <- essa última soma vale;
#X text 1016 510 N quando f+g=k \,;
#X text 1006 550 (ortogonalidade);
#X obj 475 507 cnv 15 10 10 empty empty ( 0 0 2 48 -262144 -1 0;
#X obj 744 507 cnv 15 10 10 empty empty ) 0 0 2 48 -262144 -1 0;
#X text 926 260 (obs: todos os espectros X \, Y e W são periódicos)
, f 24;
#X connect 1 0 2 0;
#X coords 0 -1 1 1 180 36 2 0 800;
#X restore 1000 600 pd icsm123D;
#X obj 100 110 cnv 15 14 14 empty empty Ilustração_do_vazamento_espectral
0 0 0 28 -262144 -38 0;
#N canvas 0 0 450 250 (subpatch) 0;
#X array \$0_123Y_espectro_interpolado 4096 float 2;
#X coords 0 1 4096 0 1074 100 1 0 0;
#X restore 104 452 graph;
#X obj 104 572 hsl 1074 20 0 44100 0 0 empty \$0_123Y_freq_r Frequência
-2 -8 0 16 -262144 -1 -1 0 0;
#X floatatom 101 594 8 0 0 1 Hz - #0_123Y_freq;
#N canvas 0 0 861 354 \$0_123Y_síntese 0;
#X obj 15 67 vradio 24 1 1 5 \$0_123Y_mux \$0_123Y_mux_r empty 0 -8
0 10 -262130 -1 -1 0;
#X text 47 67 SILÊNCIO;
#X text 47 116 SENOIDE;
#X text 47 164 QUADRADA;
#X obj 12 12 icsm_dsp;
#X text 47 141 SERRA;
#X obj 155 15 tgl 24 0 \$0_123Y_mute \$0_123Y_mute_r MUTE 28 12 0 20
-262130 -1 -1 0 1;
#X obj 155 65 vsl 20 95 0 1 0 0 \$0_123Y_vol \$0_123Y_vol_r Volume
0 -12 0 16 -262130 -1 -1 0 0;
#N canvas 0 0 663 488 \$0_123Y_análise 0;
#X obj 37 37 inlet~;
#X obj 37 226 fft~;
#X obj 37 255 cyclone/cartopol~;
#X text 97 284 normaliza espectro;
#X text 253 12 tamanho do bloco janelado;
#X obj 37 284 /~ 64;
#X obj 312 255 block~ 64;
#X msg 312 223 set \$1 1 1;
#X obj 254 37 r \$0_123Y_bloco;
#N canvas 0 0 873 633 \$0_123Y_interpola 0;
#X obj 37 37 inlet~;
#X text 403 287 interpola espectro?;
#X obj 404 310 r \$0_123Y_interp;
#X obj 640 40 block~ 4096;
#X obj 37 276 fft~;
#X obj 37 305 cyclone/cartopol~;
#X obj 47 491 bang~;
#X text 97 334 normaliza espectro;
#X obj 37 176 *~;
#X obj 63 105 bang~;
#X obj 37 563 tabwrite~ \$0_123Y_espectro_interpolado;
#X obj 415 43 inlet;
#X text 413 16 tamanho da janela;
#X obj 415 130 ofelia f \; local x=ofArray("\$0_123Y_sinal_janelado")
\; for n=0 \, a-1 do x[n] = 1 end \; for n=a \, x:getSize()-1 do x[n]
= 0 end \;;
#X obj 63 134 tabplay~ \$0_123Y_sinal_janelado;
#X obj 63 211 bang~;
#X obj 63 244 tabwrite~ \$0_123Y_sinal;
#X obj 47 530 spigot;
#X obj 37 334 /~ 64;
#X obj 415 72 t f f;
#X obj 404 339 t f f;
#X obj 404 368 sel 0;
#X obj 404 437 f \$0;
#X msg 404 466 \; \$1_123Y_espectro_interpolado const 0;
#X obj 404 397 del 4096 1 samp;
#X obj 151 410 bang~;
#X obj 151 439 s \$0_123Y_bang;
#X connect 0 0 8 0;
#X connect 2 0 20 0;
#X connect 4 0 5 0;
#X connect 4 1 5 1;
#X connect 5 0 18 0;
#X connect 6 0 17 0;
#X connect 8 0 4 0;
#X connect 8 0 16 0;
#X connect 9 0 14 0;
#X connect 11 0 19 0;
#X connect 14 0 8 1;
#X connect 15 0 16 0;
#X connect 17 0 10 0;
#X connect 18 0 10 0;
#X connect 19 0 13 0;
#X connect 19 1 18 1;
#X connect 20 0 21 0;
#X connect 20 1 17 1;
#X connect 21 0 24 0;
#X connect 22 0 23 0;
#X connect 24 0 22 0;
#X connect 25 0 26 0;
#X restore 57 186 pd \$0_123Y_interpola;
#X obj 37 423 tabwrite~ \$0_123Y_espectro;
#X obj 254 136 t f f f f;
#X obj 341 179 array size \$0_123Y_espectro;
#X obj 75 359 r \$0_123Y_bang;
#X connect 0 0 9 0;
#X connect 0 0 1 0;
#X connect 1 0 2 0;
#X connect 1 1 2 1;
#X connect 2 0 5 0;
#X connect 5 0 10 0;
#X connect 7 0 6 0;
#X connect 8 0 11 0;
#X connect 11 0 9 1;
#X connect 11 1 5 1;
#X connect 11 2 7 0;
#X connect 11 3 12 0;
#X connect 13 0 10 0;
#X restore 22 297 pd \$0_123Y_análise;
#X obj 295 15 vradio 20 1 1 7 empty \$0_123Y_bloco_r N= -26 10 0 20
-262130 -1 -1 0;
#X text 319 15 64;
#X text 319 54 256;
#X text 319 74 512;
#X text 319 93 1024;
#X text 319 114 2048;
#X text 319 135 4096;
#X floatatom 285 167 7 0 0 1 Hz #0_123Y_res_r -;
#N canvas 0 0 501 469 init 0;
#X obj 72 41 loadbang;
#X obj 72 70 f \$0;
#X obj 228 41 r pd;
#X obj 228 70 route dsp;
#X msg 72 159 \; \$1_123Y_mute_r 0 \; \$1_123Y_vol_r 0 \; \$1_123Y_mux_r
0 \; \$1_123Y_bloco_r 0 \; \$1_123Y_freq_r 0 \; \$1_123Y_interp_r 0
\; \$1_123Y_sinal const 0 \; \$1_123Y_espectro const 0 \; \$1_123Y_espectro_interpolado
const 0 \;;
#X obj 228 99 bang;
#X connect 0 0 1 0;
#X connect 1 0 4 0;
#X connect 2 0 3 0;
#X connect 3 0 5 0;
#X connect 5 0 1 0;
#X restore 583 639 pd init;
#X text 181 152 Resolução Espectral=, f 10;
#X obj 335 198 tgl 24 0 \$0_123Y_interp \$0_123Y_interp_r Interpola?
-102 12 0 16 -262130 -1 -1 0 1;
#X text 319 34 128;
#N canvas 0 0 507 544 \$0_123Y_síntese 0;
#X obj 211 218 sgn~;
#X obj 163 158 *~ 2;
#X obj 163 188 -~ 1;
#X obj 235 259 declare -lib zexy;
#X obj 163 129 phasor~;
#X obj 114 129 osc~;
#X obj 15 388 *~;
#X msg 42 327 \$1 100;
#X obj 42 356 line~;
#X msg 164 68 \$1 100;
#X obj 164 97 line~;
#X obj 164 35 r \$0_123Y_freq;
#X obj 15 5 r \$0_123Y_mux;
#X obj 42 295 r \$0_123Y_vol;
#X obj 65 417 outlet~;
#X obj 15 488 dac~;
#X obj 15 457 *~;
#X msg 255 405 \$1 100;
#X obj 255 434 line~;
#X obj 255 375 expr 1-$f1;
#X obj 255 340 r \$0_123Y_mute;
#X obj 15 259 multiplex~ 0 1 2 3 4;
#X obj 63 89 sig~ 1;
#X connect 0 0 21 4;
#X connect 1 0 2 0;
#X connect 2 0 0 0;
#X connect 2 0 21 3;
#X connect 4 0 1 0;
#X connect 5 0 21 2;
#X connect 6 0 14 0;
#X connect 6 0 16 0;
#X connect 7 0 8 0;
#X connect 8 0 6 1;
#X connect 9 0 10 0;
#X connect 10 0 5 0;
#X connect 10 0 4 0;
#X connect 11 0 9 0;
#X connect 12 0 21 0;
#X connect 13 0 7 0;
#X connect 16 0 15 0;
#X connect 16 0 15 1;
#X connect 17 0 18 0;
#X connect 18 0 16 1;
#X connect 19 0 17 0;
#X connect 20 0 19 0;
#X connect 21 0 6 0;
#X connect 22 0 21 1;
#X restore 21 264 pd \$0_123Y_síntese;
#X text 433 62 tamanho do bloco janelado;
#X obj 434 122 expr 64*pow(2 \, $f1) \; 44100/(64*pow(2 \, $f1));
#X obj 651 180 s \$0_123Y_res_r;
#X obj 434 177 s \$0_123Y_bloco;
#X text 47 91 x[n]=1;
#X connect 9 0 23 0;
#X connect 21 0 8 0;
#X connect 23 0 25 0;
#X connect 23 1 24 0;
#X coords 0 -1 1 1 390 230 2 0 0;
#X restore 788 85 pd \$0_123Y_síntese;
#N canvas 0 0 450 250 (subpatch) 0;
#X array \$0_123Y_sinal_janelado 4096 float 2;
#X coords 0 1.1 4096 -1.1 1074 100 1 0 0;
#X restore 104 322 graph;
#N canvas 0 0 450 250 (subpatch) 0;
#X array \$0_123Y_sinal 4096 float 2;
#X coords 0 1.1 4096 -1.1 1074 100 1 0 0;
#X restore 104 322 graph;
#N canvas 0 0 450 250 (subpatch) 0;
#X array \$0_123Y_espectro 64 float 2;
#X coords 0 1 64 0 1074 100 1 0 0;
#X restore 104 452 graph;
#X text 100 140 Nesse experimento você poderá visualizar o espectro
de um sinal janelado de tamanho N \, para vários tamanhos de N \,
sobreposto ao espectro superamostrado por preenchimento por zeros \,
que corresponde aqui ao sinal x[n]·w[n] em um horizonte de tempo de
M=4096 amostras. Observe como cada pico espectral (correspondente às
componentes senoidais "puras" dos sinais periódicos) aparece na forma
de um PADRÃO \, que pode ser observado também selecionando um sinal
constante x[n]=1 \, dando origem ao ESPECTRO PURO DA JANELA., f 68
;
#X connect 1 0 2 0;
#X connect 6 0 7 0;
#X coords 0 -1 1 1 180 36 2 0 800;
#X restore 1000 600 pd icsm123C;
#X obj 100 110 cnv 15 14 14 empty empty Janelamento_e_vazamento_espectral
0 0 0 28 -262144 -38 0;
#X text 100 160 A discussão anterior evidencia o fato de que mesmo
sinais muito simples \, contendo uma única componente senoidal \,
são representados em geral por componentes senoidais DE FREQUÊNCIA
DIFERENTE (pois a TF só dispõe de N frequências) e estão sujeitos
aos efeitos do janelamento e da periodicidade implícita da TF. Em
particular \, as descontinuidades de borda têm por consequência a
aparição de DIVERSAS COMPONENTES SENOIDAIS ADICIONAIS \, responsáveis
por representar a transição x[N-1]->x[0]. Isso pode ser compreendido
pelo fato de que toda soma finita de senoides é SUAVE (infinitamente
diferenciável) \, e portanto qualquer salto que se aproximasse de
uma descontinuidade "real" demandaria infinitas componentes senoidais
(o que inevitavelmente produz também REBATIMENTO)., f 107;
#X text 100 333 Uma forma de entender o efeito do janelamento consiste
em MODELAR o sinal (x[0] \, ... \, x[N-1]) janelado como o produto
de um sinal original x[·] \, que por hipótese está definido em um
horizonte de tempo mais longo do que n=0 \, ... \, N-1 \, por uma função
janela w[·]. No caso mais simples essa função w[·] satisfaz w[n]=1
\, para n=0 \, ... \, N-1 \, e w[n]=0 caso contrário \, e define a
chamada JANELA RETANGULAR. O sinal original possui um espectro X que
será modificado pelo produto x[n]·w[n] \, dando origem a um outro
espectro XW \, que possui características tanto de X quanto de W (o
ESPECTRO DA JANELA)., f 107;
#X text 100 468 Uma técnica simples para compreender a relação entre
o espectro do sinal janelado e do sinal original consiste em visualizar
o espectro do sinal XW em um horizonte de tempo tamanho maior do que
N. Essa técnica é conhecida como SUPERAMOSTRAGEM DO ESPECTRO POR
PREENCHIMENTO COM ZEROS (ZERO-PADDING)., f 107;
#X connect 1 0 2 0;
#X coords 0 -1 1 1 180 36 2 0 800;
#X restore 1000 600 pd icsm123B;
#X obj 100 110 cnv 15 14 14 empty empty A_Transformada_de_Fourier_SEMPRE_Representa_Sinais_Periódicos
0 0 0 28 -262144 -38 0;
#N canvas 0 0 450 250 (subpatch) 0;
#X array \$0_icsm123X_x 64 float 0;
#X coords 0 1 63 -1 150 100 1 0 0;
#X restore 102 485 graph;
#N canvas 0 0 696 704 \$0_icsmXYZ_interface 0;
#X obj 6 18 hsl 140 20 200 8000 1 0 empty empty Frequência -2 -8 0
16 -262144 -1 -1 0 0;
#X obj 50 170 osc~;
#X obj 50 199 fft~;
#X obj 50 228 cyclone/cartopol~;
#X obj 50 257 /~ 64;
#X obj 3 123 t b b b b;
#X obj 3 43 t b f;
#X obj 3 72 del 100;
#X obj 3 339 del 64 1 samp;
#X text 83 60 aguarda ao menos 100ms sem alterações na interface
para escrever os vetores e disparar o cálculo da ressíntese., f
37;
#X text 104 154 sintetiza \, analisa e guarda espectros de magnitude
e fase, f 30;
#X text 145 337 espera terminar de escrever os espectros;
#X text 13 363 faz a ressíntese do espectro na representação polar
usando a equação de síntese da TF Real (usando f=0 \, 1 \, ... \,
N/2)., f 58;
#X obj 100 199 tabwrite~ \$0_icsm123X_x;
#X obj 218 257 tabwrite~ \$0_icsm123X_phi;
#X obj 50 287 tabwrite~ \$0_icsm123X_A;
#X obj 3 409 ofelia f \; local A = ofArray("\$0_icsm123X_A") \; local
phi = ofArray("\$0_icsm123X_phi") \; local x = ofArray("\$0_icsm123X_ressíntese")
\; local N=A:getSize() \; --[[ faz a ressíntese de 4 blocos ]] \;
for n=0 \, 4*N-1 do \; --[[ inicializa soma com f=0 \, N/2 ]] \; x[n]
= A[0]*math.cos(phi[0])+A[N/2]*math.cos(math.pi*n+phi[N/2]) \; for
f=1 \, N/2-1 do \; --[[ faz a ressíntese de 4 blocos ]] \; x[n] =
x[n]+2*A[f]*math.cos(2*math.pi*f*n/N+phi[f]) \; end \; end \;;
#X f 66;
#X connect 0 0 6 0;
#X connect 1 0 2 0;
#X connect 1 0 13 0;
#X connect 2 0 3 0;
#X connect 2 1 3 1;
#X connect 3 0 4 0;
#X connect 3 1 14 0;
#X connect 4 0 15 0;
#X connect 5 0 8 0;
#X connect 5 1 15 0;
#X connect 5 2 14 0;
#X connect 5 3 13 0;
#X connect 6 0 7 0;
#X connect 6 1 1 0;
#X connect 7 0 5 0;
#X connect 8 0 16 0;
#X coords 0 -1 1 1 150 40 2 0 0;
#X restore 102 596 pd \$0_icsmXYZ_interface;
#N canvas 0 0 450 250 (subpatch) 0;
#X array \$0_icsm123X_A 64 float 2;
#X coords 0 1 64 -1 150 100 1 0 0;
#X restore 264 485 graph;
#N canvas 0 0 450 250 (subpatch) 0;
#X array \$0_icsm123X_ressíntese 256 float 0;
#X coords 0 1 255 -1 600 100 1 0 0;
#X restore 582 485 graph;
#N canvas 0 0 450 250 (subpatch) 0;
#X array \$0_icsm123X_phi 64 float 2;
#X coords 0 3.15 64 -3.15 150 100 1 0 0;
#X restore 422 485 graph;
#X obj 264 596 icsm_dsp;
#X obj 997 180 cnv 15 10 10 empty empty Σ 0 0 2 48 -262144 -1 0;
#X text 996 136 N-1;
#X text 996 186 f=0;
#X text 910 160 x[n] = 1;
#X text 980 161 _;
#X text 980 181 N;
#X text 1032 160 X[f]·exp_f[n];
#X text 100 160 DUAS CARACTERÍSTICAS ESSENCIAIS DA TF decorrem diretamente
da Equação de Síntese, f 80;
#X text 100 180 para um bloco (x[0] \, ... \, x[N-1]) \, e do fato
das funções exp_f[n] serem periódicas:, f 87;
#X text 100 335 A SEGUNDA é o fato de essa análise ser INCAPAZ de
revelar VARIAÇÕES DO CONTEÚDO ESPECTRAL no interior da janela de
análise \, pois os termos X[f]·exp_f[n] correspondem a funções
"imutáveis" \, que perfazem de modo inexorável seus f ciclos completos
no intervalo [0 \, N) \, tendo livres apenas os parâmetros de amplitude
e fase inicial codificados pelos coeficientes X[f]. Essa característica
da TF explica o interesse em se realizar a ANÁLISE DE TRECHOS do sinal
\, permitindo representar a EVOLUÇÃO DINÂMICA do conteúdo espectral.
, f 107;
#X text 100 210 A PRIMEIRA é o fato da própria equação de síntese
corresponder a uma FUNÇÃO PERIÓDICA \, já que implica em x[n+N]=x[n].
Isso significa que podemos ressintetizar o sinal x[·] fora do intervalo
[0 \, N) \, ainda que essa ressíntese não corresponda ao sinal original
do qual o bloco (x[0] \, ... \, x[N-1]) foi extraído. Mais ainda \,
esse novo sinal \, estendido periodicamente \, possivelmente apresenta
"DESCONTINUIDADES DE BORDA" por conta da diferença entre os valores
x[0] e x[N-1] (obs: o termo é um abuso de linguagem \, pois a rigor
não faz sentido falar em descontinuidade em um sinal de tempo discreto).
, f 107;
#X text 340 600 <- gere um sinal senoidal e observe sua extensão periódica.
, f 107;
#X connect 1 0 2 0;
#X coords 0 -1 1 1 180 36 2 0 800;
#X restore 1000 600 pd icsm123A;
#X text 100 250 O termo JANELAMENTO se aplica à seleção de trechos
de um sinal para fim de análise ou processamento \, e pressupõe uma
JANELA através da qual se observa o sinal. Frequentemente um sinal
de comprimento muito longo é SEGMENTADO em vários trechos menores
\, permitindo a análise das alterações de conteúdo do sinal à
medida que o tempo evolui., f 107;
#X text 100 350 VAZAMENTO ESPECTRAL é um termo utilizado para denotar
o efeito resultante de analisar segmentos do sinal que contêm componentes
senoidais de frequências diferentes daquelas utilizadas pela TF. Apesar
de uma aparente conotação negativa \, o vazamento espectral é uma
característica intrínseca ao janelamento e à análise de sinais
finitos \, e entendê-lo é parte substancial de entender a própria
TF. Isso se deve ao fato de que sinais finitos não são nunca periódicos
\, diferentemente das funções básicas utilizadas pela TF., f 107
;
#X text 100 470 O vazamento espectral pode ser controlado e até certo
ponto minimizado através da escolha de FUNÇÕES JANELA (ou simplesmente
JANELAS) mais adequadas ao contexto de aplicação/utilização da
representação espectral. Diferentes janelas possuem características
diversas tanto em relação à representação de componentes espectrais
isoladas (PICOS ESPECTRAIS) como em relação ao espalhamento de informação
em regiões espectrais mais distantes dos picos espectrais., f 107
;
