#N canvas 0 0 913 387 12;
#X obj 10 5 bng 30 250 50 0 empty \$0_rotulo empty 45 16 0 28 -262130
-1 -66577;
#X obj 147 53 loadbang;
#X obj 24 122 symbol \$1;
#X msg 10 308 \; pd open  .;
#X msg 119 189 set;
#X msg 71 229 addsemi;
#X msg 24 269 add2 pd open \$1 .;
#X obj 24 152 t s b b;
#X msg 170 250 \; \$1_rotulo label \$2;
#X obj 230 167 symbol \$2;
#X obj 170 199 pack \$0 s;
#X obj 147 79 t b b b;
#X connect 0 0 3 0;
#X connect 1 0 11 0;
#X connect 2 0 7 0;
#X connect 4 0 3 0;
#X connect 5 0 3 0;
#X connect 6 0 3 0;
#X connect 7 0 6 0;
#X connect 7 1 5 0;
#X connect 7 2 4 0;
#X connect 9 0 10 1;
#X connect 10 0 8 0;
#X connect 11 0 2 0;
#X connect 11 1 10 0;
#X connect 11 2 9 0;
#X coords 0 -1 1 1 800 40 2 0 0;
