#N canvas 0 0 521 340 12;
#X obj 104 64 symbol \$2;
#X obj 24 64 symbol \$1;
#X obj 24 14 loadbang;
#X text 134 34 usar com patchpai patchfilho referência subpatch;
#X obj 24 39 t b b b b b;
#X obj 24 89 pack s s s s s;
#X obj 184 64 symbol \$3;
#X obj 264 64 symbol \$4;
#X obj 339 90 pdcontrol;
#X msg 339 64 dir;
#X msg 24 124 \; pd-\$1 obj 600 650 pd \$2 \; pd-\$2 obj 0 0 bng 15
250 50 0 empty empty * 4 9 0 14 -262144 -1 -1 \; pd-\$2 msg 200 0 \\\;
pd open \$3 \$5 \\\; pd-\$3 vis 0 \\\; pd-\$4 vis 1 \; pd-\$2 connect
0 0 1 0 \; pd-\$2 donecanvasdialog 0 0 3 0 -1 1 1 15 15 0 0 1 \; pd-\$2
menuclose \; pd-\$2 relocate 15x15+1+1 1x1+0+0 \; pd-\$2 vis 1;
#X connect 0 0 5 1;
#X connect 1 0 5 0;
#X connect 2 0 4 0;
#X connect 4 0 1 0;
#X connect 4 1 0 0;
#X connect 4 3 6 0;
#X connect 4 3 7 0;
#X connect 4 4 9 0;
#X connect 5 0 10 0;
#X connect 6 0 5 2;
#X connect 7 0 5 3;
#X connect 8 0 5 4;
#X connect 9 0 8 0;
