#N canvas 0 0 1280 700 12;
#X obj 196 399 pdcontrol;
#X msg 196 373 dir;
#X text 174 27 icsm_alterna \$1 \$2 fecha o (sub)patch \$1 e abre o
(sub)patch \$2, f 63;
#X obj 67 27 r icsm_alterna;
#X obj 196 345 loadbang;
#X obj 67 74 unpack s s;
#X obj 67 456 pack s s s s s;
#N canvas 0 0 594 454 patch_principal_subpatch 0;
#X obj 51 27 inlet;
#X obj 51 58 list fromsymbol;
#X obj 101 112 list length;
#X obj 69 163 list split;
#X obj 102 190 list tosymbol;
#X obj 102 218 list trim;
#X obj 102 245 route .pd;
#X obj 101 137 - 3;
#X text 98 27 testa se o símbolo termina em .pd e extrai raiz (icsmNNN)
;
#X obj 261 112 list length;
#X obj 229 163 list split;
#X obj 229 190 list tosymbol;
#X obj 261 137 - 1;
#X obj 69 280 list tosymbol;
#X obj 51 366 symbol;
#X obj 111 366 symbol;
#X msg 189 280 1;
#X msg 249 280 0;
#X obj 51 395 outlet;
#X obj 203 395 outlet;
#X obj 189 305 t f f;
#X obj 51 309 f;
#X obj 51 83 t b l l l l;
#X obj 51 334 sel 1;
#X msg 111 334 bang;
#X connect 0 0 1 0;
#X connect 1 0 22 0;
#X connect 2 0 7 0;
#X connect 3 0 13 0;
#X connect 3 1 4 0;
#X connect 4 0 5 0;
#X connect 5 0 6 0;
#X connect 6 0 16 0;
#X connect 6 1 17 0;
#X connect 7 0 3 1;
#X connect 9 0 12 0;
#X connect 10 0 11 0;
#X connect 11 0 15 1;
#X connect 12 0 10 1;
#X connect 13 0 14 1;
#X connect 14 0 18 0;
#X connect 15 0 18 0;
#X connect 16 0 20 0;
#X connect 17 0 20 0;
#X connect 20 0 21 1;
#X connect 20 1 19 0;
#X connect 21 0 23 0;
#X connect 22 0 21 0;
#X connect 22 1 3 0;
#X connect 22 2 2 0;
#X connect 22 3 10 0;
#X connect 22 4 9 0;
#X connect 23 0 14 0;
#X connect 23 1 24 0;
#X connect 24 0 15 0;
#X restore 99 125 pd patch_principal_subpatch;
#X obj 166 180 t s s;
#X obj 99 150 t s s;
#N canvas 0 0 237 181 compara_patch_principal 0;
#X obj 50 11 inlet;
#X obj 131 11 inlet;
#X msg 50 91 1;
#X msg 82 91 0;
#X obj 50 116 outlet;
#X obj 50 66 route symbol;
#X obj 50 36 list trim;
#X connect 0 0 6 0;
#X connect 1 0 5 1;
#X connect 2 0 4 0;
#X connect 3 0 4 0;
#X connect 5 0 2 0;
#X connect 5 1 3 0;
#X connect 6 0 5 0;
#X restore 131 213 pd compara_patch_principal;
#X obj 67 99 t s s s;
#X obj 134 99 t s s s;
#X obj 89 285 pack s s;
#X obj 90 313 list;
#X msg 90 342 \; pd-\$2 vis 1 \; pd-\$1 vis 0;
#X text 278 240 o caso mais simples é quando a origem e o destino
pertencem ao mesmo patch: nesse caso \, basta alternar a visibilidade.
, f 24;
#X text 179 456 monta mensagem \$1 \$2 pai-\$1 pai-\$2 dir;
#X obj 349 185 * 2;
#X obj 148 485 +;
#X text 180 487 3=.pd->.pd \, 2=subpatch->.pd \, 1=.pd->subpatch \,
0=subpatch->subpatch, f 28;
#X obj 67 543 route 0 1 2 3;
#X obj 67 516 list prepend;
#X text 179 423 a partir deste ponto \, a alternância é entre patches
diferentes:, f 35;
#X text 512 593 sub->.pd;
#X text 292 593 pd->sub;
#X text 737 583 .pd->.pd;
#X text 64 577 sub->sub;
#X obj 800 583 list;
#X obj 575 593 list;
#X obj 348 593 list;
#X obj 127 577 list;
#X obj 67 399 spigot;
#X obj 131 236 t f f;
#X obj 131 259 sel 1;
#X obj 181 259 expr 1-$f1;
#X obj 600 217 loadbang;
#X obj 600 399 sel 0;
#X obj 632 479 \$0;
#X obj 632 453 t b f;
#X obj 600 242 t b b;
#X obj 632 266 \$0;
#X obj 600 182 namecanvas \$0_icsm_alterna;
#X text 599 106 o mecanismo abaixo permite que esse patch possa ser
aberto várias vezes \, mas apenas a última instância fique ativa.
, f 42;
#X text 647 248 esconde essa instância;
#X msg 632 320 \; \$1_icsm_alterna vis 0;
#X obj 600 374 v icsm_alterna_id;
#X text 729 374 fecha instâncias anteriores;
#X msg 664 479 \; \$1_icsm_alterna menuclose;
#X obj 632 521 s icsm_alterna_id;
#X obj 632 291 t f f;
#X floatatom 679 291 5 0 0 0 - - -;
#N canvas 0 0 594 454 patch_principal_subpatch 0;
#X obj 51 27 inlet;
#X obj 51 58 list fromsymbol;
#X obj 101 112 list length;
#X obj 69 163 list split;
#X obj 102 190 list tosymbol;
#X obj 102 218 list trim;
#X obj 102 245 route .pd;
#X obj 101 137 - 3;
#X text 98 27 testa se o símbolo termina em .pd e extrai raiz (icsmNNN)
;
#X obj 261 112 list length;
#X obj 229 163 list split;
#X obj 229 190 list tosymbol;
#X obj 261 137 - 1;
#X obj 69 280 list tosymbol;
#X obj 51 366 symbol;
#X obj 111 366 symbol;
#X msg 189 280 1;
#X msg 249 280 0;
#X obj 51 395 outlet;
#X obj 203 395 outlet;
#X obj 189 305 t f f;
#X obj 51 309 f;
#X obj 51 83 t b l l l l;
#X obj 51 334 sel 1;
#X msg 111 334 bang;
#X connect 0 0 1 0;
#X connect 1 0 22 0;
#X connect 2 0 7 0;
#X connect 3 0 13 0;
#X connect 3 1 4 0;
#X connect 4 0 5 0;
#X connect 5 0 6 0;
#X connect 6 0 16 0;
#X connect 6 1 17 0;
#X connect 7 0 3 1;
#X connect 9 0 12 0;
#X connect 10 0 11 0;
#X connect 11 0 15 1;
#X connect 12 0 10 1;
#X connect 13 0 14 1;
#X connect 14 0 18 0;
#X connect 15 0 18 0;
#X connect 16 0 20 0;
#X connect 17 0 20 0;
#X connect 20 0 21 1;
#X connect 20 1 19 0;
#X connect 21 0 23 0;
#X connect 22 0 21 0;
#X connect 22 1 3 0;
#X connect 22 2 2 0;
#X connect 22 3 10 0;
#X connect 22 4 9 0;
#X connect 23 0 14 0;
#X connect 23 1 24 0;
#X connect 24 0 15 0;
#X restore 163 153 pd patch_principal_subpatch;
#X obj 67 50 list;
#X msg 127 614 \; pd open \$4.pd \$5 \; pd-\$2 vis 1 \; pd-\$4.pd vis
0;
#X msg 846 633 \; pd open \$2 \$5 \; pd-\$1 vis 0 \;;
#X msg 408 630 \; pd open \$4.pd \$5 \; pd-\$2 vis 1 \; pd-\$4.pd vis
0 \; pd-\$1 vis 0;
#X msg 800 694 \; pd-\$1 menuclose;
#X msg 621 644 \; pd open \$2 \$5 \; pd-\$1 vis 0 \; pd-\$3.pd vis
0;
#X msg 575 714 \; pd-\$3.pd menuclose;
#X msg 348 715 \; pd-\$1 menuclose;
#X obj 800 665 list;
#X obj 800 607 t b l l;
#X obj 800 636 del 0;
#X obj 575 676 list;
#X obj 575 618 t b l l;
#X obj 575 647 del 0;
#X obj 348 676 list;
#X obj 348 618 t b l l;
#X obj 348 647 del 0;
#X text 71 680 nesse caso o patch anterior não é fechado (referência
interna), f 31;
#X text 865 552 os [del 0] abaixo são essenciais para interromper
a cadeia de eventos desde a ação do usuário até o comando menuclose.
, f 32;
#X text 688 425 precisa interromper a cadeia de eventos desde a abertura
da nova instância para permitir o término da execução da instância
anterior.;
#X obj 632 425 pipe 1;
#X connect 0 0 6 4;
#X connect 1 0 0 0;
#X connect 3 0 53 0;
#X connect 4 0 1 0;
#X connect 5 0 11 0;
#X connect 5 1 12 0;
#X connect 6 0 22 0;
#X connect 7 0 9 0;
#X connect 7 1 19 0;
#X connect 8 0 6 3;
#X connect 8 1 10 1;
#X connect 9 0 6 2;
#X connect 9 1 10 0;
#X connect 10 0 33 0;
#X connect 11 0 32 0;
#X connect 11 1 7 0;
#X connect 11 2 13 0;
#X connect 12 0 6 1;
#X connect 12 1 52 0;
#X connect 12 2 13 1;
#X connect 13 0 14 1;
#X connect 14 0 15 0;
#X connect 18 0 19 1;
#X connect 19 0 22 1;
#X connect 21 0 31 0;
#X connect 21 1 30 0;
#X connect 21 2 29 0;
#X connect 21 3 28 0;
#X connect 22 0 21 0;
#X connect 28 0 62 0;
#X connect 29 0 65 0;
#X connect 30 0 68 0;
#X connect 31 0 54 0;
#X connect 32 0 6 0;
#X connect 33 0 34 0;
#X connect 33 1 35 0;
#X connect 34 0 14 0;
#X connect 35 0 32 1;
#X connect 36 0 40 0;
#X connect 37 0 38 0;
#X connect 37 1 73 0;
#X connect 38 0 49 0;
#X connect 39 0 38 0;
#X connect 39 1 48 0;
#X connect 40 0 46 0;
#X connect 40 1 41 0;
#X connect 41 0 50 0;
#X connect 46 0 37 0;
#X connect 50 0 45 0;
#X connect 50 1 51 0;
#X connect 52 0 8 0;
#X connect 52 1 18 0;
#X connect 53 0 5 0;
#X connect 61 0 57 0;
#X connect 62 0 63 0;
#X connect 62 1 61 1;
#X connect 62 2 55 0;
#X connect 63 0 61 0;
#X connect 64 0 59 0;
#X connect 65 0 66 0;
#X connect 65 1 64 1;
#X connect 65 2 58 0;
#X connect 66 0 64 0;
#X connect 67 0 60 0;
#X connect 68 0 69 0;
#X connect 68 1 67 1;
#X connect 68 2 56 0;
#X connect 69 0 67 0;
#X connect 73 0 39 0;
