#N canvas 0 0 850 457 12;
#X obj 10 5 bng 31 250 50 0 empty empty > 6 14 0 36 -262130 -1 -1;
#X obj 164 53 loadbang;
#X obj 224 122 symbol \$1;
#X msg 340 183 set;
#X msg 282 210 addsemi;
#X msg 424 209 \; \$1_rotulo label \$2;
#X obj 484 126 symbol \$2;
#X obj 424 158 pack \$0 s;
#X obj 389 216 pdcontrol;
#X msg 389 191 dir;
#X obj 224 260 pack s s, f 24;
#X msg 224 289 add pd open \$1 \$2;
#X obj 60 5 cnv 15 10 10 empty \$0_rotulo empty 0 16 0 28 -262144 -66577
0;
#X text 487 64 Uso: icsm_topico ARQUIVO TÍTULO ANTERIOR;
#X obj 164 79 t b b b b b, f 12;
#X obj 134 122 symbol \$3;
#X msg 134 329 add pd-\$1 vis 0;
#X obj 224 152 t s b b, f 17;
#X msg 60 374 \; pd open  /home/mqz/cursos/cm/icsm \; pd- vis 0 \;
;
#X obj 10 164 s icsm_alterna;
#X obj 10 109 pack s s;
#X obj 10 58 t b b;
#X obj 10 136 list;
#X obj 10 83 symbol \$3;
#X obj 80 83 symbol \$1;
#X connect 0 0 21 0;
#X connect 1 0 14 0;
#X connect 2 0 17 0;
#X connect 3 0 18 0;
#X connect 4 0 18 0;
#X connect 6 0 7 1;
#X connect 7 0 5 0;
#X connect 8 0 10 1;
#X connect 9 0 8 0;
#X connect 10 0 11 0;
#X connect 11 0 18 0;
#X connect 14 0 15 0;
#X connect 14 1 2 0;
#X connect 14 2 9 0;
#X connect 14 3 7 0;
#X connect 14 4 6 0;
#X connect 15 0 16 0;
#X connect 16 0 18 0;
#X connect 17 0 10 0;
#X connect 17 1 4 0;
#X connect 17 2 3 0;
#X connect 20 0 22 0;
#X connect 21 0 23 0;
#X connect 21 1 24 0;
#X connect 22 0 19 0;
#X connect 23 0 20 0;
#X connect 24 0 20 1;
#X coords 0 -1 1 1 800 40 2 0 0;
