#N canvas 0 0 1280 700 24;
#X obj 0 0 icsm_cabecalho;
#X obj 100 200 cnv 15 14 14 empty empty Requisitos_Técnicos 0 0 0
34 -262144 -147457 0;
#N canvas 0 0 425 513 dependencias 0;
#X obj 539 616 textfile;
#X obj 71 93 bng 30 250 50 0 \$0_linux empty Linux 40 15 0 24 -262130
-1 -1;
#X obj 702 778 symbol;
#X obj 539 484 t a a;
#X obj 444 401 symbol;
#X obj 733 292 v \$0_linha;
#X obj 647 696 v \$0_linha;
#X obj 648 658 t b b;
#X obj 647 856 pack f s f f;
#X obj 810 818 f \$0;
#X obj 647 733 t f f b;
#X msg 663 252 0;
#X obj 733 252 v \$0_falta;
#X obj 444 440 sel fim;
#X obj 444 669 s \$0_fim;
#X obj 17 671 r \$0_fim;
#X obj 17 710 v \$0_falta;
#X obj 17 749 sel 1;
#X obj 71 133 bng 30 250 50 0 \$0_macosx empty OSX 40 15 0 24 -262130
-1 -1;
#X obj 71 173 bng 30 250 50 0 \$0_windows empty Windows 40 15 0 24
-262130 -1 -1;
#X text 20 10 Clique no SO para checar as bibliotecas faltantes:,
f 25;
#X obj 1087 188 r \$0_linux;
#X msg 1182 275 symbol /LICENSE.txt;
#X obj 539 523 pack s s s;
#X msg 1134 357 symbol ~/.local/lib/pd/extra/;
#X obj 1134 396 s \$0_prefixo;
#X obj 1182 314 s \$0_arquivo;
#X obj 676 481 r \$0_arquivo;
#X obj 676 442 r \$0_prefixo;
#X msg 539 573 clear \, read \$2\$1\$3 \, rewind \, bang;
#X obj 1087 446 s \$0_processa;
#X obj 444 183 r \$0_processa;
#X obj 1087 227 t b b b;
#X msg 1182 585 symbol /LICENSE.txt;
#X obj 1134 706 s \$0_prefixo;
#X obj 1182 624 s \$0_arquivo;
#X obj 1087 756 s \$0_processa;
#X obj 1087 537 t b b b;
#X obj 1134 1021 s \$0_prefixo;
#X obj 1182 939 s \$0_arquivo;
#X obj 1087 1071 s \$0_processa;
#X obj 1087 852 t b b b;
#X obj 1087 813 r \$0_windows;
#X obj 1087 498 r \$0_macosx;
#N canvas 0 0 450 272 resultados 0;
#X coords 0 -1 1 1 400 260 2 0 0;
#X restore 0 220 pd resultados;
#X msg 647 898 \; pd-resultados obj 70 \$1 cnv 15 15 15 empty empty
\$2 0 0 0 24 -262144 -258113 0 \; \$4_linha \$3 \; \$4_falta 1 \;,
f 23;
#X obj 444 222 t b b b b;
#X msg 663 183 \; pd-resultados clear;
#X msg 17 1082 \; pd-resultados obj 20 30 cnv 15 15 15 empty empty
Por_favor_instale: 0 0 0 24 -262144 -258113 0 \;, f 31;
#X msg 84 791 \; pd-resultados obj 20 50 cnv 15 15 15 empty empty Todas_as_dependências
0 0 0 24 -262144 -4160 0 \; pd-resultados obj 20 90 cnv 15 15 15 empty
empty já_foram_instaladas! 0 0 0 24 -262144 -4160 0 \;, f 31;
#X msg 1182 900 symbol /LICENSE.txt;
#X text 442 12 Entre aqui por sua conta e risco... Os detalhes desse
patch não fazem parte do conteúdo a ser discutido.;
#X text 441 90 Para cada biblioteca necessária \, verifica sua existência
tentando abrir o arquivo LICENSE.txt no diretório de instalação.
;
#X text 1248 142 Define os locais de instalação para cada sistema
operacional:, f 18;
#X text 489 1119 Essas mensagens geram os textos informativos sobre
a falta de bibliotecas \, quando for o caso., f 31;
#X msg 1134 667 symbol ~/Documents/Pd/externals/;
#X msg 1134 982 symbol %AppData/%Pd/;
#X msg 444 332 cyclone \, ggee \, iemlib \, ofelia \, windowing \,
zexy \, fim, f 30;
#X obj 739 818 + 30;
#X msg 663 292 70;
#N canvas 0 0 681 422 \$0_checalicence 0;
#X obj 42 28 inlet;
#X obj 172 28 inlet;
#X obj 172 67 unpack s s s;
#X obj 172 156 pack s s s;
#X msg 337 113 symbol /LICENCE.txt;
#X obj 42 306 textfile;
#X msg 42 263 clear \, read \$2\$1\$3 \, rewind \, bang;
#X obj 42 211 list;
#X obj 151 356 outlet;
#X connect 0 0 7 0;
#X connect 1 0 2 0;
#X connect 2 0 3 0;
#X connect 2 1 3 1;
#X connect 2 2 4 0;
#X connect 3 0 7 1;
#X connect 4 0 3 2;
#X connect 5 1 8 0;
#X connect 6 0 5 0;
#X connect 7 0 6 0;
#X restore 663 616 pd \$0_checalicence;
#X text 927 616 iemlib usa LICENCE, f 7;
#X connect 0 1 60 0;
#X connect 2 0 8 1;
#X connect 3 0 23 0;
#X connect 3 1 2 1;
#X connect 4 0 13 0;
#X connect 6 0 10 0;
#X connect 7 0 6 0;
#X connect 7 1 2 0;
#X connect 8 0 45 0;
#X connect 9 0 8 3;
#X connect 10 0 8 0;
#X connect 10 1 58 0;
#X connect 10 2 9 0;
#X connect 11 0 12 0;
#X connect 13 0 14 0;
#X connect 13 1 3 0;
#X connect 15 0 16 0;
#X connect 16 0 17 0;
#X connect 17 0 48 0;
#X connect 17 1 49 0;
#X connect 21 0 32 0;
#X connect 22 0 26 0;
#X connect 23 0 60 1;
#X connect 23 0 29 0;
#X connect 24 0 25 0;
#X connect 27 0 23 2;
#X connect 28 0 23 1;
#X connect 29 0 0 0;
#X connect 31 0 46 0;
#X connect 32 0 30 0;
#X connect 32 1 24 0;
#X connect 32 2 22 0;
#X connect 33 0 35 0;
#X connect 37 0 36 0;
#X connect 37 1 55 0;
#X connect 37 2 33 0;
#X connect 41 0 40 0;
#X connect 41 1 56 0;
#X connect 41 2 50 0;
#X connect 42 0 41 0;
#X connect 43 0 37 0;
#X connect 46 0 57 0;
#X connect 46 1 59 0;
#X connect 46 2 11 0;
#X connect 46 3 47 0;
#X connect 50 0 39 0;
#X connect 55 0 34 0;
#X connect 56 0 38 0;
#X connect 57 0 4 0;
#X connect 58 0 8 2;
#X connect 59 0 5 0;
#X connect 60 0 7 0;
#X coords 0 -1 1 1 400 480 2 0 0;
#X restore 793 155 pd dependencias;
#N canvas 0 0 1280 700 detalhes_ofelia 0;
#X text 100 120 Clique aqui para testar a criação de um objeto ofelia:
;
#N canvas 0 0 572 295 teste_ofelia 0;
#X obj 1 1 bng 30 250 50 0 empty empty empty 17 7 0 10 -262130 -1 -1
;
#X obj 3 136 r \$0_abrir_detalhes_ofelia;
#X msg 3 175 \; pd-detalhes_ofelia vis 1;
#X msg 1 53 \; pd-detalhes_ofelia obj 910 120 ofelia;
#X connect 0 0 3 0;
#X connect 1 0 2 0;
#X coords 0 -1 1 1 32 32 2 0 0;
#X restore 858 121 pd teste_ofelia;
#X text 100 174 O objeto deve aparecer dentro de um retângulo inteiriço
(não-tracejado) \, com duas marquinhas nos cantos superior e inferior
esquerdos., f 77;
#X obj 112 808 bng 20 250 50 0 \$0_abrir_detalhes_ofelia empty empty
17 7 0 10 -262130 -1 -1;
#X text 0 801 (clique;
#X text 138 801 para + detalhes);
#X obj 100 70 cnv 15 14 14 empty empty Instalação_e_teste_do_objeto_[ofelia]
0 0 0 34 -262144 -147457 0;
#N canvas 0 0 1243 502 dicas_linux 0;
#X obj 139 803 bng 30 250 50 0 empty empty empty 17 7 0 10 -262130
-1 -1;
#X msg 189 801 \; pd-dicas_linux vis 1;
#X text 40 120 cd ~/.local/lib/pd/extra/ofelia/scripts/nome_da_sua_distribuição
sudo ./install_dependencies.sh, f 65;
#X text 40 32 No Linux/Raspbian \, se acontecer da biblioteca ofelia
não carregar \, rode os seguintes comandos no terminal:, f 77;
#X text 40 377 sudo dpkg -i libboost-filesystem1.65.1_1.65.1+dfsg-0ubuntu5_amd64.deb
libboost-system1.65.1_1.65.1+dfsg-0ubuntu5_amd64.deb libglew2.0_2.0.0-5_amd64.deb
, f 81;
#X text 6 801 Linux:;
#X text 40 208 Se ainda assim aparecerem mensagens sobre bibliotecas
não encontradas \, baixe as três bibliotecas a seguir:, f 77;
#X text 40 347 e depois faça:, f 81;
#X obj 94 289 icsm_url http://archive.ubuntu.com/ubuntu/pool/universe/g/glew/libglew2.0_2.0.0-5_amd64.deb
;
#X text 95 288 __ libglew2.0;
#X text 325 288 __ libboost-system1.65.1;
#X text 705 288 __ libboost-filesystem1.65.1;
#X obj 705 289 icsm_url http://archive.ubuntu.com/ubuntu/pool/main/b/boost1.65.1/libboost-filesystem1.65.1_1.65.1+dfsg-0ubuntu5_amd64.deb
;
#X obj 325 289 icsm_url http://archive.ubuntu.com/ubuntu/pool/main/b/boost1.65.1/libboost-system1.65.1_1.65.1+dfsg-0ubuntu5_amd64.deb
;
#X connect 0 0 1 0;
#X coords 0 -1 1 1 180 36 2 0 800;
#X restore 261 351 pd dicas_linux;
#N canvas 0 0 1224 304 dicas_windows 0;
#X obj 139 803 bng 30 250 50 0 empty empty empty 17 7 0 10 -262130
-1 -1;
#X msg 189 801 \; pd-dicas_windows vis 1;
#X text 6 801 Windows:;
#X obj 513 91 icsm_url https://support.microsoft.com/en-us/help/2977003/
the-latest-supported-visual-c-downloads;
#X text 51 32 No Windows \, se acontecer do objeto [ofelia] não carregar
\, abra o executável vc_redist no diretório do ofelia para instalar
os Microsoft Visual C++ Redistributable packages (clique __ para mais
informações)., f 77;
#X text 51 182 Se os exemplos em vídeo não funcionarem \, tente instalar
o K-Lite Codec Pack (clique __ para mais informações)., f 77;
#X obj 163 212 icsm_url https://www.codecguide.com/download_kl.htm
;
#X connect 0 0 1 0;
#X coords 0 -1 1 1 180 36 2 0 800;
#X restore 261 431 pd dicas_windows;
#X text 100 254 Se isso não funcionar \, veja as dicas abaixo para
o seu sistema operacional:, f 77;
#X obj 597 554 icsm_url https://github.com/cuinjune/Ofelia/;
#X text 100 553 Para mais informações \, clique aqui:, f 35;
#X coords 0 -1 1 1 368 34 2 0 800;
#X restore 317 525 pd detalhes_ofelia;
#X text 98 235 Esse livro depende do Pd >= 0.50-2 e de algumas bibliotecas
que devem ser instaladas pelo deken. Para isso \, acesse o menu "Ajuda"
\, depois "Procurar por externals" \, e instale as bibliotecas a seguir
\, dando preferência às versões mais novas:, f 45;
#X obj 1100 650 icsm_anterior icsm01.pd icsm00.pd;
#X obj 1150 650 icsm_sobe icsm01.pd icsm0.pd;
#X obj 1200 650 icsm_proximo icsm01.pd icsm02.pd;
#X text 213 439 cyclone ggee iemlib ofelia windowing zexy, f 10;
