#N canvas 961 576 959 463 12;
#X msg 219 54 read -c karplusstrong~.lua;
#X obj 140 168 outlet~;
#X obj 19 12 inlet;
#X obj 53 96 ofelia d -s11;
#X obj 219 15 loadbang;
#X obj 39 178 dac~;
#X msg 104 25 220 0.2;
#X msg 88 3 110 0.2;
#X msg 106 49 440 0.6;
#X connect 0 0 3 0;
#X connect 2 0 3 0;
#X connect 3 0 1 0;
#X connect 3 0 5 0;
#X connect 4 0 0 0;
#X connect 6 0 3 0;
#X connect 7 0 3 0;
#X connect 8 0 3 0;
