#N canvas 961 576 959 463 12;
#X msg 219 54 read -c karplusstrong~.lua;
#X obj 51 151 outlet~;
#X obj 53 27 inlet;
#X obj 53 96 ofelia d -s11;
#X obj 219 15 loadbang;
#X obj 432 212 bng 15 250 50 0 empty empty empty 17 7 0 10 -262144
-1 -1;
#X obj 421 395 print;
#X obj 433 246 ofelia f \; a = ofTable() for i=1 \, 50 do \; a[i] =
2*math.random() -1 \; end \; return a \;;
#X connect 0 0 3 0;
#X connect 2 0 3 0;
#X connect 3 0 1 0;
#X connect 4 0 0 0;
#X connect 5 0 7 0;
#X connect 7 0 6 0;
