#N canvas 961 56 959 984 12;
#X declare -lib zexy;
#X text 22 19 Nome: Caio Túlio de Deus Andrade;
#X obj 126 529 dac~;
#X obj 205 253 hsl 128 15 200 2000 1 0 empty empty Frequência -2 -8
0 10 -262144 -1 -1 0 1;
#X obj 223 447 hsl 128 15 0.0001 1 1 0 empty empty Amplitude -2 -8
0 10 -262144 -1 -1 0 1;
#X obj 217 305 osc~;
#X obj 111 95 vradio 30 1 0 4 empty empty empty 0 -8 0 10 -262144 -1
-1 2;
#X obj 286 401 declare -lib zexy;
#X text 156 98 Silencio;
#X text 163 130 Ruido;
#X text 161 163 Senoide;
#X text 164 189 Ruido + Senoide;
#X obj 128 458 *~;
#X text 23 49 NUSP:9797232;
#X obj 223 360 soma~;
#X obj 167 308 ruido~;
#X obj 123 400 multiplex~ 0 1 2 3;
#X connect 2 0 4 0;
#X connect 3 0 11 1;
#X connect 4 0 13 1;
#X connect 4 0 15 2;
#X connect 5 0 15 0;
#X connect 11 0 1 0;
#X connect 11 0 1 1;
#X connect 13 0 15 3;
#X connect 14 0 13 0;
#X connect 14 0 15 1;
#X connect 15 0 11 0;
