#N canvas 0 55 1920 985 12;
#X obj 135 246 sintetizador~;
#X msg 135 47 liga;
#X msg 135 75 desliga;
#X msg 139 127 ataque;
#X msg 139 150 decaimento;
#X msg 141 176 inicia;
#X msg 141 205 notas;
#X msg 317 85 onda senoidal;
#X msg 318 109 onda triangular;
#X msg 318 132 onda quadrada;
#X msg 319 155 onda dente-de-serra;
#X connect 1 0 0 0;
#X connect 2 0 0 0;
#X connect 3 0 0 0;
#X connect 4 0 0 0;
#X connect 5 0 0 0;
#X connect 6 0 0 0;
#X connect 7 0 0 0;
#X connect 8 0 0 0;
#X connect 9 0 0 0;
#X connect 10 0 0 0;
