#N canvas 0 576 959 463 12;
#X obj 135 246 sintetizador~;
#X msg 16 46 liga;
#X msg 17 80 desliga;
#X msg 22 173 inicia;
#X msg 124 48 onda senoidal;
#X msg 126 72 onda triangular;
#X msg 126 95 onda quadrada;
#X msg 127 118 onda dente-de-serra;
#X msg 20 147 decaimento 50;
#X msg 19 124 ataque 50;
#X msg 124 11 onda desliga;
#X msg 64 301 notas 62 130.435 62 130.435 74 260.87 69 391.305 68 260.87
67 260.87 65 260.87 62 130.435 65 130.435 67 130.435 60;
#X msg 49 338 notas 62 130.435 74 260.87 69 391.305 68 260.87 67 260.87
65 260.87 62 130.435 65 130.435 67 130.435 60 130.435 60 130.435 74
260.87 69 391.305 68 260.87 67 260.87 65 260.87 62 130.435 65 130.435
67 130.435 59 130.435 59 130.435 74 260.87 69 391.305 68 260.87 67
260.87 65 260.87 62 130.435 65 130.435 67 130.435 58 130.435 58 130.435
74 260.87 69 391.305 68 260.87 67 260.87 65 260.87 62 130.435 65 130.435
67 130.435;
#X obj 196 163 hsl 128 15 0 126 0 0 empty empty Frequencia -2 -8 0
10 -262144 -1 -1 5400 1;
#X obj 220 197 sig~;
#X floatatom 157 205 5 0 0 0 - - -;
#X msg 24 213 finaliza;
#X obj 381 170 hsl 128 15 0 1 0 0 empty empty Amplitude -2 -8 0 10
-262144 -1 -1 5400 1;
#X obj 316 202 sig~;
#X floatatom 428 104 5 0 0 0 - - -;
#X text 522 366 processamento de notas temporariamente desligado;
#X msg 657 158 ataque 1000;
#X msg 663 213 decaimento 1000;
#X connect 1 0 0 0;
#X connect 2 0 0 0;
#X connect 3 0 0 0;
#X connect 4 0 0 0;
#X connect 5 0 0 0;
#X connect 6 0 0 0;
#X connect 7 0 0 0;
#X connect 8 0 0 0;
#X connect 9 0 0 0;
#X connect 10 0 0 0;
#X connect 11 0 0 0;
#X connect 12 0 0 0;
#X connect 13 0 14 0;
#X connect 13 0 15 0;
#X connect 14 0 0 1;
#X connect 16 0 0 0;
#X connect 17 0 18 0;
#X connect 17 0 19 0;
#X connect 18 0 0 2;
#X connect 21 0 0 0;
#X connect 22 0 0 0;
