#N canvas 0 576 959 463 12;
#X obj 135 246 sintetizador~;
#X msg 135 49 liga;
#X msg 134 75 desliga;
#X msg 141 176 inicia;
#X msg 316 85 onda senoidal;
#X msg 318 109 onda triangular;
#X msg 318 132 onda quadrada;
#X msg 319 155 onda dente-de-serra;
#X msg 139 150 decaimento 50;
#X msg 139 127 ataque 50;
#X msg 317 47 onda desliga;
#X msg 405 300 notas 0 0;
#X msg 408 218 notas 74 120;
#X msg 409 247 notas 440 120;
#X msg 522 31 notas 62 130.435 62 130.435 74 260.87 69 391.305 68 260.87
67 260.87 65 260.87 62 130.435 65 130.435 67 130.435 60;
#X msg 554 92 notas 62 130.435 74 260.87 69 391.305 68 260.87 67 260.87
65 260.87 62 130.435 65 130.435 67 130.435 60 130.435 60 130.435 74
260.87 69 391.305 68 260.87 67 260.87 65 260.87 62 130.435 65 130.435
67 130.435 59 130.435 59 130.435 74 260.87 69 391.305 68 260.87 67
260.87 65 260.87 62 130.435 65 130.435 67 130.435 58 130.435 58 130.435
74 260.87 69 391.305 68 260.87 67 260.87 65 260.87 62 130.435 65 130.435
67 130.435;
#X obj 37 37;
#X connect 1 0 0 0;
#X connect 2 0 0 0;
#X connect 3 0 0 0;
#X connect 4 0 0 0;
#X connect 5 0 0 0;
#X connect 6 0 0 0;
#X connect 7 0 0 0;
#X connect 8 0 0 0;
#X connect 9 0 0 0;
#X connect 10 0 0 0;
#X connect 11 0 0 0;
#X connect 12 0 0 0;
#X connect 13 0 0 0;
#X connect 14 0 0 0;
#X connect 15 0 0 0;
