#N canvas 961 56 959 984 12;
#X declare -lib zexy;
#X declare -lib zexy;
#X text 32 52 Recebe mensagem;
#X obj 31 72 inlet;
#X floatatom 846 132 5 0 0 0 - - -;
#X floatatom 74 393 5 0 0 0 - - -;
#X obj 845 107 receive ataque_rec;
#X obj 74 368 receive decaimento_rec;
#X text 764 396 sintese de notas;
#X text 27 8 NOME: Caio Túlio de Deus Andrade;
#X text 301 11 NUSP:9797232;
#X obj 761 838 mux~ 0 1;
#X obj 860 764 osc~ 400;
#X obj 961 784 phasor~ 200;
#X obj 757 756 r tocando_nota;
#X floatatom 757 781 5 0 0 0 - - -;
#X obj 293 188 mux~ 0 1, f 25;
#X obj 291 228 dac~;
#N canvas 0 56 959 984 escolhe_sintese 0;
#X obj 198 96 r sintese;
#X floatatom 250 253 5 0 0 0 - - -;
#X msg 285 134 \$1;
#X msg 212 145 \$1;
#X obj 280 96 r terminou_notas;
#X obj 250 277 outlet;
#X connect 0 0 3 0;
#X connect 1 0 5 0;
#X connect 2 0 1 0;
#X connect 3 0 1 0;
#X connect 4 0 2 0;
#X restore 294 131 pd escolhe_sintese;
#X floatatom 962 751 5 0 0 0 - - -;
#X obj 962 726 r terminou_notas;
#N canvas 961 56 959 984 processa_mensagens 1;
#X obj 40 151 route liga desliga onda ataque decaimento inicia finaliza
notas, f 66;
#X obj 576 142 print oops;
#X msg 38 183 \; pd dsp 1;
#X msg 36 220 \; pd dsp 0;
#X msg 212 182 \; ataque_rec \$1;
#X msg 207 90 \; decaimento_rec \$1;
#N canvas 300 393 959 984 processa_onda 0;
#X obj 117 19 inlet;
#X obj 112 116 route senoidal triangular quadrada dente-de-serra;
#X msg 106 186 \; mux_rec 1;
#X msg 203 177 \; mux_rec 2;
#X msg 299 177 \; mux_rec 3;
#X msg 397 168 \; mux_rec 4;
#X msg 478 166 \; mux_rec 0;
#X obj 1068 634 trigger;
#X text 334 13 Recebe uma mensagem e seta qual a onda que deve ser
usada;
#X connect 0 0 1 0;
#X connect 1 0 2 0;
#X connect 1 1 3 0;
#X connect 1 2 4 0;
#X connect 1 3 5 0;
#X connect 1 4 6 0;
#X restore 144 268 pd processa_onda;
#N canvas 961 56 959 984 processa_notas 0;
#X obj 214 156 list split 2;
#X obj 176 232 list trim;
#X obj 267 95 list store;
#X obj 81 259 outlet;
#X obj 206 267 bng 15 250 50 0 empty empty empty 17 7 0 10 -262144
-1 -1;
#X obj 275 22 receive stop_sig;
#X obj 136 48 inlet;
#X obj 277 61 bng 15 250 50 0 empty empty empty 17 7 0 10 -262144 -1
-1;
#X floatatom 390 300 5 0 0 0 - - -;
#X obj 389 272 receive tempo_nota;
#X msg 236 379 \; stop_sig 1;
#X obj 291 317 delay;
#X floatatom 642 201 5 0 0 0 - - -;
#X obj 106 136 bng 15 250 50 0 empty empty empty 17 7 0 10 -262144
-1 -1;
#X obj 724 79 loadbang;
#X msg 653 129 1;
#X floatatom 723 217 5 0 0 0 - - -;
#X msg 724 181 0;
#X obj 723 148 loadbang;
#X floatatom 344 194 5 0 0 0 - - -;
#X obj 344 169 list length;
#X obj 354 128 list;
#X obj 375 94 bng 15 250 50 0 empty empty empty 17 7 0 10 -262144 -1
-1;
#X floatatom 704 288 5 0 0 0 - - -;
#X obj 631 18 r notas;
#X obj 703 250 ==;
#X msg 769 319 \; terminou_notas \$1;
#X obj 638 259 !=;
#X floatatom 638 289 5 0 0 0 - - -;
#X msg 581 331 \; vol_interno_notas \$1;
#X connect 0 0 1 0;
#X connect 0 1 2 1;
#X connect 1 0 3 0;
#X connect 1 0 4 0;
#X connect 2 0 0 0;
#X connect 2 0 21 0;
#X connect 4 0 11 0;
#X connect 5 0 7 0;
#X connect 6 0 0 0;
#X connect 6 0 13 0;
#X connect 7 0 2 0;
#X connect 8 0 11 1;
#X connect 9 0 8 0;
#X connect 11 0 10 0;
#X connect 12 0 25 0;
#X connect 12 0 27 0;
#X connect 14 0 15 0;
#X connect 15 0 12 0;
#X connect 16 0 25 1;
#X connect 16 0 27 1;
#X connect 17 0 16 0;
#X connect 18 0 17 0;
#X connect 19 0 12 0;
#X connect 20 0 19 0;
#X connect 21 0 20 0;
#X connect 22 0 21 0;
#X connect 23 0 26 0;
#X connect 24 0 15 0;
#X connect 25 0 23 0;
#X connect 27 0 28 0;
#X connect 28 0 29 0;
#X restore 560 232 pd processa_notas;
#X msg 639 316 \; tempo_nota \$2;
#X msg 522 320 \; freq_nota \$1;
#X text 405 316 Sintese livre;
#X msg 326 204 \; sintese 1;
#X msg 584 189 \; sintese 0;
#X msg 430 441 \; inicia_rec 1;
#X msg 545 2 \; inicia_rec 0;
#X msg 548 260 \; vol_interno_notas 1;
#X obj 80 23 inlet;
#X msg 292 366 \; fadein bang;
#X msg 725 48 \; fadeout bang;
#X msg 408 260 \; init_notas bang;
#X connect 0 0 2 0;
#X connect 0 1 3 0;
#X connect 0 2 6 0;
#X connect 0 3 4 0;
#X connect 0 4 5 0;
#X connect 0 5 11 0;
#X connect 0 5 13 0;
#X connect 0 5 17 0;
#X connect 0 6 14 0;
#X connect 0 6 18 0;
#X connect 0 7 7 0;
#X connect 0 7 12 0;
#X connect 0 7 15 0;
#X connect 0 7 19 0;
#X connect 0 8 1 0;
#X connect 7 0 9 0;
#X connect 7 0 8 0;
#X connect 16 0 0 0;
#X restore 28 115 pd processa_mensagens;
#N canvas 961 56 959 984 sintese_livre 0;
#N canvas 971 56 949 985 processa_freq 0;
#X obj 31 43 inlet~;
#X text 23 21 frequencia do sinal;
#X obj 29 127 snapshot~;
#X obj 102 96 metro 100;
#X floatatom 28 163 5 0 0 0 - - -;
#X obj 102 69 r inicia_rec;
#X obj 30 197 mtof;
#X floatatom 30 222 5 0 0 0 - - -;
#X obj 30 251 outlet;
#X obj 119 146 bng 15 250 50 0 empty empty empty 17 7 0 10 -262144
-1 -1;
#X connect 0 0 2 0;
#X connect 2 0 4 0;
#X connect 3 0 2 0;
#X connect 3 0 9 0;
#X connect 4 0 6 0;
#X connect 5 0 3 0;
#X connect 6 0 7 0;
#X connect 7 0 8 0;
#X restore 151 194 pd processa_freq;
#X obj 150 158 inlet~;
#X text 151 133 Frequencia do sinal;
#X obj 304 146 inlet~;
#N canvas 1265 474 433 300 processa_amplitude 0;
#X obj 31 43 inlet~;
#X text 23 21 frequencia do sinal;
#X obj 29 127 snapshot~;
#X obj 102 96 metro 100;
#X floatatom 30 161 5 0 0 0 - - -;
#X obj 102 69 r inicia_rec;
#X obj 30 251 outlet;
#X obj 119 146 bng 15 250 50 0 empty empty empty 17 7 0 10 -262144
-1 -1;
#X connect 0 0 2 0;
#X connect 2 0 4 0;
#X connect 3 0 2 0;
#X connect 3 0 7 0;
#X connect 4 0 6 0;
#X connect 5 0 3 0;
#X restore 304 179 pd processa_amplitude;
#X obj 252 351 *~;
#N canvas 961 57 959 984 gera_som 0;
#X obj 67 209 multiplex~ 0 1 2 3 4;
#X obj 125 128 osc~ 400;
#X obj 219 94 phasor~ 400;
#X obj 219 123 *~ 2;
#X obj 219 148 -~ 1;
#X obj 170 174 sgn~;
#X obj 126 170 abs~;
#X obj 58 311 outlet~;
#X obj 223 201 declare -lib zexy;
#X floatatom 67 162 5 0 0 0 mux_rec mux_rec -;
#X obj 56 42 inlet;
#X obj 62 257 *~;
#X obj 398 226 inlet;
#X text 164 8 Frequencia do som gerado;
#X text 467 229 Amplitude do som gerado;
#X floatatom 39 96 5 0 0 0 - - -;
#X connect 0 0 11 0;
#X connect 1 0 0 1;
#X connect 2 0 3 0;
#X connect 3 0 4 0;
#X connect 4 0 5 0;
#X connect 4 0 0 4;
#X connect 4 0 6 0;
#X connect 5 0 0 3;
#X connect 6 0 0 2;
#X connect 9 0 0 0;
#X connect 10 0 2 0;
#X connect 10 0 1 0;
#X connect 10 0 15 0;
#X connect 11 0 7 0;
#X connect 12 0 11 1;
#X restore 193 301 pd gera_som;
#N canvas 961 56 959 984 fades 0;
#X obj 198 240 outlet;
#X obj 162 54 r ataque_rec;
#X obj 281 43 r decaimento_rec;
#X floatatom 199 200 5 0 0 0 - - -;
#X obj 159 100 value;
#X obj 268 97 value;
#X msg 268 122 0 \$1;
#X msg 159 125 1 \$1;
#X obj 73 45 inlet;
#X obj 420 51 inlet;
#X text 60 22 bang fade in;
#X text 400 9 bang fade out;
#X obj 199 163 line;
#X connect 1 0 4 0;
#X connect 2 0 5 0;
#X connect 3 0 0 0;
#X connect 4 0 7 0;
#X connect 5 0 6 0;
#X connect 6 0 12 0;
#X connect 7 0 12 0;
#X connect 8 0 4 0;
#X connect 9 0 5 0;
#X connect 12 0 3 0;
#X restore 380 266 pd fades;
#X text 302 121 Volume interno;
#X obj 252 395 outlet~;
#X obj 346 213 r fadein;
#X obj 482 220 r fadeout;
#X connect 0 0 6 0;
#X connect 1 0 0 0;
#X connect 3 0 4 0;
#X connect 4 0 5 1;
#X connect 5 0 9 0;
#X connect 6 0 5 0;
#X connect 7 0 6 1;
#X connect 10 0 7 0;
#X connect 11 0 7 1;
#X restore 464 117 pd sintese_livre;
#X obj 463 68 inlet~;
#X obj 574 66 inlet~;
#N canvas 108 155 959 984 sintese_notas 1;
#X obj 361 147 receive freq_nota;
#X floatatom 361 172 5 0 0 0 - - -;
#N canvas 431 57 959 984 gera_som 0;
#X obj 67 209 multiplex~ 0 1 2 3 4;
#X obj 125 128 osc~ 400;
#X obj 219 94 phasor~ 400;
#X obj 219 123 *~ 2;
#X obj 219 148 -~ 1;
#X obj 170 174 sgn~;
#X obj 126 170 abs~;
#X obj 58 311 outlet~;
#X obj 223 201 declare -lib zexy;
#X floatatom 67 162 5 0 0 0 mux_rec mux_rec -;
#X obj 62 257 *~;
#X text 164 8 Frequencia do som gerado;
#X text 138 270 Amplitude do som gerado;
#X obj 67 56 inlet;
#X obj 351 242 inlet;
#X obj 532 247;
#X connect 0 0 10 0;
#X connect 1 0 0 1;
#X connect 2 0 3 0;
#X connect 3 0 4 0;
#X connect 4 0 5 0;
#X connect 4 0 0 4;
#X connect 4 0 6 0;
#X connect 5 0 0 3;
#X connect 6 0 0 2;
#X connect 9 0 0 0;
#X connect 10 0 7 0;
#X connect 13 0 2 0;
#X connect 13 0 1 0;
#X connect 14 0 10 1;
#X restore 347 304 pd gera_som;
#X obj 361 196 mtof;
#X obj 308 243 *;
#X obj 195 86 r vol_interno_notas;
#X floatatom 186 127 5 0 0 0 - - -;
#X obj 347 329 outlet~;
#N canvas 961 56 959 984 fades 0;
#X obj 198 240 outlet;
#X obj 162 54 r ataque_rec;
#X obj 281 43 r decaimento_rec;
#X floatatom 199 200 5 0 0 0 - - -;
#X obj 159 100 value;
#X obj 268 97 value;
#X msg 268 122 0 \$1;
#X msg 159 125 1 \$1;
#X obj 73 45 inlet;
#X obj 420 51 inlet;
#X text 60 22 bang fade in;
#X text 400 9 bang fade out;
#X obj 199 163 line;
#X connect 1 0 4 0;
#X connect 2 0 5 0;
#X connect 3 0 0 0;
#X connect 4 0 7 0;
#X connect 5 0 6 0;
#X connect 6 0 12 0;
#X connect 7 0 12 0;
#X connect 8 0 4 0;
#X connect 9 0 5 0;
#X connect 12 0 3 0;
#X restore 491 236 pd fades;
#X obj 554 180 bng 15 250 50 0 empty empty empty 17 7 0 10 -262144
-1 -1;
#X obj 757 156 r terminou_notas;
#X obj 704 190 bng 15 250 50 0 empty empty empty 17 7 0 10 -262144
-1 -1;
#X obj 551 146 r init_notas;
#X connect 0 0 1 0;
#X connect 1 0 3 0;
#X connect 2 0 7 0;
#X connect 3 0 2 0;
#X connect 3 0 4 1;
#X connect 4 0 2 0;
#X connect 5 0 4 0;
#X connect 5 0 6 0;
#X connect 8 0 2 1;
#X connect 10 0 11 0;
#X connect 12 0 9 0;
#X restore 291 65 pd sintese_notas;
#X obj 207 500 value;
#X obj 210 451 receive decaimento_rec;
#X obj 282 475 bng 15 250 50 0 empty empty empty 17 7 0 10 -262144
-1 -1;
#X floatatom 207 525 5 0 0 0 - - -;
#X connect 1 0 19 0;
#X connect 4 0 2 0;
#X connect 5 0 3 0;
#X connect 10 0 9 0;
#X connect 11 0 9 1;
#X connect 12 0 13 0;
#X connect 13 0 9 0;
#X connect 14 0 15 0;
#X connect 14 0 15 1;
#X connect 16 0 14 0;
#X connect 18 0 17 0;
#X connect 20 0 14 1;
#X connect 21 0 20 0;
#X connect 22 0 20 1;
#X connect 23 0 14 0;
#X connect 24 0 27 0;
#X connect 25 0 24 0;
#X connect 26 0 24 0;
#X coords 0 0 0.25 0.25 0 0 0;
