#N canvas 961 56 959 984 12;
#X declare -lib zexy;
#X obj 157 88 inlet~;
#X obj 256 91 inlet~;
#X text 2 25 Recebe mensagem;
#X text 154 64 Volume midi;
#X text 249 63 Volume de saida;
#X obj 1 45 inlet;
#X obj 189 276 print onda;
#X obj 35 150 route liga desliga onda ataque decaimento inicia finaliza
notas, f 66;
#X obj 206 226 print ataque;
#X obj 264 184 print decaimento;
#X obj 322 232 print inicia;
#X obj 380 184 print finaliza;
#X obj 435 232 print notas;
#X obj 492 188 print oops;
#X msg 17 182 \; pd dsp 1;
#X msg 15 219 \; pd dsp 0;
#X obj 136 333 route senoidal triangular quadrada dente-de-serra;
#X obj 627 688 declare -lib zexy;
#X obj 103 640 dac~;
#X obj 109 598 multiplex~ 0 1 2 3 4;
#X msg 661 333 123 \; receiver_teste 1;
#X obj 661 388 print;
#X obj 659 573 receive receiver_teste;
#X floatatom 659 598 5 0 0 0 - - -;
#X obj 661 290 bng 15 250 50 0 empty empty empty 17 7 0 10 -262144
-1 -1;
#X obj 106 480 receive mux_rec;
#X floatatom 106 505 5 0 0 0 - - -;
#X obj 167 517 osc~ 400;
#X msg 130 403 senoidal \; mux_rec 1;
#X msg 227 394 triangular \; mux_rec 2;
#X msg 323 394 quadrada \; mux_rec 3;
#X msg 415 392 dente-de-serra \; mux_rec 4;
#X obj 130 443 print;
#X obj 227 434 print;
#X obj 323 434 print;
#X obj 415 432 print;
#X obj 259 453 phasor~ 400;
#X obj 255 506 *~ 2;
#X obj 255 531 -~ 1;
#X obj 212 563 sgn~;
#X obj 168 559 abs~;
#X connect 5 0 7 0;
#X connect 7 0 14 0;
#X connect 7 1 15 0;
#X connect 7 2 6 0;
#X connect 7 2 16 0;
#X connect 7 3 8 0;
#X connect 7 4 9 0;
#X connect 7 5 10 0;
#X connect 7 6 11 0;
#X connect 7 7 12 0;
#X connect 7 8 13 0;
#X connect 16 0 28 0;
#X connect 16 1 29 0;
#X connect 16 2 30 0;
#X connect 19 0 18 0;
#X connect 19 0 18 1;
#X connect 20 0 21 0;
#X connect 22 0 23 0;
#X connect 24 0 20 0;
#X connect 25 0 26 0;
#X connect 26 0 19 0;
#X connect 27 0 19 1;
#X connect 28 0 32 0;
#X connect 29 0 33 0;
#X connect 30 0 34 0;
#X connect 31 0 35 0;
#X connect 36 0 37 0;
#X connect 37 0 38 0;
#X connect 38 0 39 0;
#X connect 38 0 19 4;
#X connect 38 0 40 0;
#X connect 39 0 19 3;
#X connect 40 0 19 2;
#X coords 0 0 0.25 0.25 0 0 0;
