#N canvas 977 56 943 984 12;
#X obj 157 88 inlet~;
#X obj 256 91 inlet~;
#X text 2 25 Recebe mensagem;
#X text 154 64 Volume midi;
#X text 249 63 Volume de saida;
#X obj 1 45 inlet;
#X obj 189 276 print onda;
#X obj 35 150 route liga desliga onda ataque decaimento inicia finaliza
notas, f 66;
#X obj 324 261 print inicia;
#X obj 380 184 print finaliza;
#X obj 435 232 print notas;
#X obj 492 188 print oops;
#X msg 38 183 \; pd dsp 1;
#X msg 36 220 \; pd dsp 0;
#X obj 136 333 route senoidal triangular quadrada dente-de-serra;
#X obj 103 640 dac~;
#X obj 109 598 multiplex~ 0 1 2 3 4;
#X obj 106 480 receive mux_rec;
#X floatatom 106 505 5 0 0 0 - - -;
#X obj 167 517 osc~ 400;
#X msg 130 403 senoidal \; mux_rec 1;
#X msg 227 394 triangular \; mux_rec 2;
#X msg 323 394 quadrada \; mux_rec 3;
#X msg 415 392 dente-de-serra \; mux_rec 4;
#X obj 130 443 print;
#X obj 227 434 print;
#X obj 323 434 print;
#X obj 415 432 print;
#X obj 259 453 phasor~ 400;
#X obj 255 506 *~ 2;
#X obj 255 531 -~ 1;
#X obj 212 563 sgn~;
#X obj 168 559 abs~;
#X floatatom 595 577 5 0 0 0 - - -;
#X floatatom 736 578 5 0 0 0 - - -;
#X obj 594 552 receive ataque_rec;
#X obj 736 553 receive decaimento_rec;
#X msg 210 199 \; ataque_rec \$1;
#X msg 269 232 \; decaimento_rec \$1;
#X connect 5 0 7 0;
#X connect 7 0 12 0;
#X connect 7 1 13 0;
#X connect 7 2 6 0;
#X connect 7 2 14 0;
#X connect 7 3 37 0;
#X connect 7 4 38 0;
#X connect 7 5 8 0;
#X connect 7 6 9 0;
#X connect 7 7 10 0;
#X connect 7 8 11 0;
#X connect 14 0 20 0;
#X connect 14 1 21 0;
#X connect 14 2 22 0;
#X connect 16 0 15 0;
#X connect 16 0 15 1;
#X connect 17 0 18 0;
#X connect 18 0 16 0;
#X connect 19 0 16 1;
#X connect 20 0 24 0;
#X connect 21 0 25 0;
#X connect 22 0 26 0;
#X connect 23 0 27 0;
#X connect 28 0 29 0;
#X connect 29 0 30 0;
#X connect 30 0 31 0;
#X connect 30 0 16 4;
#X connect 30 0 32 0;
#X connect 31 0 16 3;
#X connect 32 0 16 2;
#X connect 35 0 33 0;
#X connect 36 0 34 0;
#X coords 0 0 0.25 0.25 0 0 0;
