#N canvas 1169 228 731 300 12;
#X obj 157 88 inlet~;
#X obj 256 91 inlet~;
#X text 2 25 Recebe mensagem;
#X text 154 64 Volume midi;
#X text 249 63 Volume de saida;
#X obj 1 45 inlet;
#X obj 35 189 print liga;
#X obj 93 221 print desliga;
#X obj 148 189 print onda;
#X obj 35 148 route liga desliga onda ataque decaimento inicia finaliza
notas, f 66;
#X obj 206 226 print ataque;
#X obj 264 184 print decaimento;
#X obj 322 232 print inicia;
#X obj 380 184 print finaliza;
#X obj 435 232 print notas;
#X obj 495 188 print oops;
#X connect 5 0 9 0;
#X connect 9 0 6 0;
#X connect 9 1 7 0;
#X connect 9 2 8 0;
#X connect 9 3 10 0;
#X connect 9 4 11 0;
#X connect 9 5 12 0;
#X connect 9 6 13 0;
#X connect 9 7 14 0;
#X connect 9 8 15 0;
