#N canvas 851 90 959 463 12;
#X declare -lib zexy;
#X obj 157 88 inlet~;
#X obj 256 91 inlet~;
#X text 2 25 Recebe mensagem;
#X text 154 64 Volume midi;
#X text 249 63 Volume de saida;
#X obj 1 45 inlet;
#X obj 40 151 route liga desliga onda ataque decaimento inicia finaliza
notas, f 66;
#X obj 380 184 print finaliza;
#X obj 492 188 print oops;
#X msg 38 183 \; pd dsp 1;
#X msg 36 220 \; pd dsp 0;
#X floatatom 49 381 5 0 0 0 - - -;
#X floatatom 190 382 5 0 0 0 - - -;
#X obj 48 356 receive ataque_rec;
#X obj 190 357 receive decaimento_rec;
#X msg 206 114 \; ataque_rec \$1;
#X msg 320 114 \; decaimento_rec \$1;
#N canvas 0 122 959 984 processa_onda 0;
#X obj 62 67 inlet;
#X obj 22 114 route senoidal triangular quadrada dente-de-serra;
#X obj 94 553 multiplex~ 0 1 2 3 4;
#X obj 29 494 receive mux_rec;
#X floatatom 90 524 5 0 0 0 - - -;
#X obj 152 472 osc~ 400;
#X msg 16 184 senoidal \; mux_rec 1;
#X msg 113 175 triangular \; mux_rec 2;
#X msg 209 175 quadrada \; mux_rec 3;
#X msg 301 173 dente-de-serra \; mux_rec 4;
#X obj 16 224 print;
#X obj 113 215 print;
#X obj 209 215 print;
#X obj 301 213 print;
#X obj 246 438 phasor~ 400;
#X obj 246 467 *~ 2;
#X obj 246 492 -~ 1;
#X obj 197 518 sgn~;
#X obj 153 514 abs~;
#X obj 94 599 outlet~;
#X obj 784 502 sgn~;
#X obj 690 426 declare -lib zexy;
#X msg 368 140 desliga \; mux_rec 0;
#X obj 205 378 inlet;
#X msg 144 827 desliga \; mux_rec 0;
#X text 58 43 1o inlet: Seleciona o tipo de sinal tocado;
#X text 156 336 2o inlet: Seleciona a frequencia do sinal;
#X text 58 726 3o inlet: Bang que toca quando o tempo de execução
da nota termina;
#X obj 147 779 receive stop_sig;
#X obj 258 842 bng 15 250 50 0 empty empty empty 17 7 0 10 -262144
-1 -1;
#X connect 0 0 1 0;
#X connect 1 0 6 0;
#X connect 1 1 7 0;
#X connect 1 2 8 0;
#X connect 1 3 9 0;
#X connect 1 4 22 0;
#X connect 2 0 19 0;
#X connect 3 0 4 0;
#X connect 4 0 2 0;
#X connect 5 0 2 1;
#X connect 6 0 10 0;
#X connect 7 0 11 0;
#X connect 8 0 12 0;
#X connect 9 0 13 0;
#X connect 14 0 15 0;
#X connect 15 0 16 0;
#X connect 16 0 17 0;
#X connect 16 0 2 4;
#X connect 16 0 18 0;
#X connect 17 0 2 3;
#X connect 18 0 2 2;
#X connect 23 0 5 0;
#X connect 23 0 14 0;
#X connect 28 0 24 0;
#X connect 28 0 29 0;
#X restore 154 259 pd processa_onda;
#X obj 147 313 dac~;
#N canvas 961 578 959 463 processa_notas 1;
#X text 40 322 Da split no indice 2 Manda o resultado pro outlet. Guarda
o resto no list store. Dai ele puxa o que tem na store pro split e
faz isso ate o fim(?);
#X obj 177 164 list split 2;
#X obj 176 232 list trim;
#X obj 281 96 list store;
#X obj 282 48 bng 15 250 50 0 empty empty empty 17 7 0 10 -262144 -1
-1;
#X obj 107 44 inlet;
#X obj 121 261 outlet;
#X obj 206 267 bng 15 250 50 0 empty empty empty 17 7 0 10 -262144
-1 -1;
#X obj 206 289 outlet;
#X connect 1 0 2 0;
#X connect 1 1 3 1;
#X connect 2 0 6 0;
#X connect 2 0 7 0;
#X connect 3 0 1 0;
#X connect 4 0 3 0;
#X connect 5 0 1 0;
#X connect 7 0 8 0;
#X restore 466 226 pd processa_notas;
#X obj 210 180 receive freq_nota;
#X floatatom 210 205 5 0 0 0 - - -;
#X floatatom 720 296 5 0 0 0 - - -;
#X obj 719 268 receive tempo_nota;
#X msg 428 362 \; tempo_nota \$2;
#X text 578 12 talvez eu possa mover esses reiceives de frequencia
e tempo de nota pra dentro do patch?;
#X obj 769 372 delay 1000 1 msec;
#X obj 594 344 delay 1000 1 msec;
#X msg 592 380 \; stop_sig 0;
#X msg 397 277 \; freq_nota \$1;
#X connect 5 0 6 0;
#X connect 6 0 9 0;
#X connect 6 1 10 0;
#X connect 6 2 17 0;
#X connect 6 3 15 0;
#X connect 6 4 16 0;
#X connect 6 6 7 0;
#X connect 6 7 19 0;
#X connect 6 8 8 0;
#X connect 13 0 11 0;
#X connect 14 0 12 0;
#X connect 17 0 18 0;
#X connect 17 0 18 1;
#X connect 19 0 29 0;
#X connect 19 0 24 0;
#X connect 19 1 27 0;
#X connect 20 0 21 0;
#X connect 21 0 17 1;
#X connect 22 0 27 1;
#X connect 23 0 22 0;
#X connect 27 0 28 0;
#X coords 0 0 0.25 0.25 0 0 0;
