#N canvas 961 56 959 984 12;
#X obj 157 88 inlet~;
#X obj 256 91 inlet~;
#X text 2 25 Recebe mensagem;
#X text 154 64 Volume midi;
#X text 249 63 Volume de saida;
#X obj 1 45 inlet;
#X obj 148 189 print onda;
#X obj 35 150 route liga desliga onda ataque decaimento inicia finaliza
notas, f 66;
#X obj 206 226 print ataque;
#X obj 264 184 print decaimento;
#X obj 322 232 print inicia;
#X obj 380 184 print finaliza;
#X obj 435 232 print notas;
#X obj 492 188 print oops;
#X obj 462 358 dac~;
#X obj 460 320 osc~ 400;
#X msg 17 182 \; pd dsp 1;
#X msg 16 219 \; pd dsp 0;
#X connect 5 0 7 0;
#X connect 7 0 16 0;
#X connect 7 1 17 0;
#X connect 7 2 6 0;
#X connect 7 3 8 0;
#X connect 7 4 9 0;
#X connect 7 5 10 0;
#X connect 7 6 11 0;
#X connect 7 7 12 0;
#X connect 7 8 13 0;
#X connect 15 0 14 0;
#X connect 15 0 14 1;
