#N canvas 961 56 959 463 12;
#X declare -lib zexy;
#X text 2 25 Recebe mensagem;
#X text 345 4 Volume de saida;
#X obj 1 45 inlet;
#X obj 40 151 route liga desliga onda ataque decaimento inicia finaliza
notas, f 66;
#X obj 492 188 print oops;
#X msg 38 183 \; pd dsp 1;
#X msg 36 220 \; pd dsp 0;
#X floatatom 715 154 5 0 0 0 - - -;
#X floatatom 669 129 5 0 0 0 - - -;
#X obj 714 129 receive ataque_rec;
#X obj 669 104 receive decaimento_rec;
#X msg 212 182 \; ataque_rec \$1;
#X msg 320 114 \; decaimento_rec \$1;
#N canvas 961 56 959 984 processa_onda 0;
#X obj 117 19 inlet;
#X obj 112 116 route senoidal triangular quadrada dente-de-serra;
#X obj 184 555 multiplex~ 0 1 2 3 4;
#X obj 242 474 osc~ 400;
#X obj 106 226 print;
#X obj 203 217 print;
#X obj 299 217 print;
#X obj 398 214 print;
#X obj 336 440 phasor~ 400;
#X obj 336 469 *~ 2;
#X obj 336 494 -~ 1;
#X obj 287 520 sgn~;
#X obj 243 516 abs~;
#X obj 206 845 outlet~;
#X obj 679 203 declare -lib zexy;
#X obj 274 292 receive freq_nota;
#X floatatom 274 317 5 0 0 0 - - -;
#X msg 106 186 \; mux_rec 1;
#X msg 203 177 \; mux_rec 2;
#X msg 299 177 \; mux_rec 3;
#X msg 397 168 \; mux_rec 4;
#X obj 479 217 print;
#X floatatom 140 494 5 0 0 0 mux_rec mux_rec -;
#X msg 478 166 \; mux_rec 0;
#X obj 274 341 mtof~;
#X obj 299 389 inlet;
#X obj 279 616 r ataque_rec;
#X msg 381 641 0 \$1;
#X obj 380 602 r decaimento_rec;
#X msg 288 658 1 \$1;
#X floatatom 308 764 5 0 0 0 - - -;
#X obj 210 791 *~;
#X obj 1068 634 trigger;
#X msg 507 355 2;
#X msg 595 350 3;
#X msg 701 341 4;
#X obj 559 454 expr $f1 + $f2 + $f3;
#X obj 559 479 print;
#X obj 307 730 line;
#X connect 0 0 1 0;
#X connect 1 0 17 0;
#X connect 1 1 18 0;
#X connect 1 2 19 0;
#X connect 1 3 20 0;
#X connect 1 4 23 0;
#X connect 2 0 31 0;
#X connect 3 0 2 1;
#X connect 8 0 9 0;
#X connect 9 0 10 0;
#X connect 10 0 11 0;
#X connect 10 0 2 4;
#X connect 10 0 12 0;
#X connect 11 0 2 3;
#X connect 12 0 2 2;
#X connect 15 0 16 0;
#X connect 16 0 24 0;
#X connect 17 0 4 0;
#X connect 18 0 5 0;
#X connect 19 0 6 0;
#X connect 20 0 7 0;
#X connect 22 0 2 0;
#X connect 23 0 21 0;
#X connect 25 0 8 0;
#X connect 25 0 3 0;
#X connect 26 0 29 0;
#X connect 27 0 38 0;
#X connect 28 0 27 0;
#X connect 29 0 38 0;
#X connect 30 0 31 1;
#X connect 31 0 13 0;
#X connect 33 0 36 0;
#X connect 34 0 36 1;
#X connect 35 0 36 2;
#X connect 36 0 37 0;
#X connect 38 0 30 0;
#X restore 144 268 pd processa_onda;
#X obj 147 406 dac~;
#N canvas 961 576 959 463 processa_notas 0;
#X obj 184 158 list split 2;
#X obj 176 232 list trim;
#X obj 281 96 list store;
#X obj 121 261 outlet;
#X obj 206 267 bng 15 250 50 0 empty empty empty 17 7 0 10 -262144
-1 -1;
#X obj 275 22 receive stop_sig;
#X obj 136 48 inlet;
#X obj 277 61 bng 15 250 50 0 empty empty empty 17 7 0 10 -262144 -1
-1;
#X floatatom 390 300 5 0 0 0 - - -;
#X obj 389 272 receive tempo_nota;
#X msg 236 379 \; stop_sig 1;
#X obj 291 317 delay;
#X obj 509 146 list length;
#X floatatom 514 191 5 0 0 0 - - -;
#X obj 444 157 bng 15 250 50 0 empty empty empty 17 7 0 10 -262144
-1 -1;
#X obj 106 136 bng 15 250 50 0 empty empty empty 17 7 0 10 -262144
-1 -1;
#X connect 0 0 1 0;
#X connect 0 1 2 1;
#X connect 1 0 3 0;
#X connect 1 0 4 0;
#X connect 2 0 0 0;
#X connect 2 0 12 0;
#X connect 4 0 11 0;
#X connect 5 0 7 0;
#X connect 6 0 0 0;
#X connect 6 0 15 0;
#X connect 7 0 2 0;
#X connect 8 0 11 1;
#X connect 9 0 8 0;
#X connect 11 0 10 0;
#X connect 12 0 13 0;
#X connect 14 0 13 0;
#X restore 466 226 pd processa_notas;
#X msg 473 276 \; tempo_nota \$2;
#X msg 373 276 \; freq_nota \$1;
#X msg 331 214 \; inicia_rec bang;
#X msg 379 173 \; inicia_rec stop;
#N canvas 971 56 949 985 processa_freq 0;
#X obj 31 43 inlet~;
#X text 23 21 frequencia do sinal;
#X obj 29 127 snapshot~;
#X obj 102 96 metro 100;
#X floatatom 28 163 5 0 0 0 - - -;
#X obj 102 69 r inicia_rec;
#X obj 30 197 mtof;
#X floatatom 30 222 5 0 0 0 - - -;
#X obj 30 251 outlet;
#X obj 119 146 bng 15 250 50 0 empty empty empty 17 7 0 10 -262144
-1 -1;
#X connect 0 0 2 0;
#X connect 2 0 4 0;
#X connect 3 0 2 0;
#X connect 3 0 9 0;
#X connect 4 0 6 0;
#X connect 5 0 3 0;
#X connect 6 0 7 0;
#X connect 7 0 8 0;
#X restore 158 227 pd processa_freq;
#X obj 174 47 inlet~;
#X text 175 22 Frequencia do sinal;
#X obj 348 36 inlet~;
#N canvas 1265 474 433 300 processa_amplitude 1;
#X obj 31 43 inlet~;
#X text 23 21 frequencia do sinal;
#X obj 29 127 snapshot~;
#X obj 102 96 metro 100;
#X floatatom 30 161 5 0 0 0 - - -;
#X obj 102 69 r inicia_rec;
#X obj 30 251 outlet;
#X obj 119 146 bng 15 250 50 0 empty empty empty 17 7 0 10 -262144
-1 -1;
#X connect 0 0 2 0;
#X connect 2 0 4 0;
#X connect 3 0 2 0;
#X connect 3 0 7 0;
#X connect 4 0 6 0;
#X connect 5 0 3 0;
#X restore 429 58 pd processa_amplitude;
#X floatatom 234 305 5 0 0 0 - - -;
#X obj 150 346 *~;
#X connect 2 0 3 0;
#X connect 3 0 5 0;
#X connect 3 1 6 0;
#X connect 3 2 13 0;
#X connect 3 3 11 0;
#X connect 3 4 12 0;
#X connect 3 5 18 0;
#X connect 3 6 19 0;
#X connect 3 7 15 0;
#X connect 3 8 4 0;
#X connect 9 0 7 0;
#X connect 10 0 8 0;
#X connect 13 0 26 0;
#X connect 15 0 17 0;
#X connect 15 0 16 0;
#X connect 20 0 13 1;
#X connect 21 0 20 0;
#X connect 23 0 24 0;
#X connect 24 0 25 0;
#X connect 25 0 26 1;
#X connect 26 0 14 0;
#X connect 26 0 14 1;
#X coords 0 0 0.25 0.25 0 0 0;
