#N canvas 961 56 959 463 12;
#X declare -lib zexy;
#X obj 185 35 inlet~;
#X obj 270 42 inlet~;
#X text 2 25 Recebe mensagem;
#X text 157 5 Volume midi;
#X text 246 5 Volume de saida;
#X obj 1 45 inlet;
#X obj 40 151 route liga desliga onda ataque decaimento inicia finaliza
notas, f 66;
#X obj 380 184 print finaliza;
#X obj 492 188 print oops;
#X msg 38 183 \; pd dsp 1;
#X msg 36 220 \; pd dsp 0;
#X floatatom 236 407 5 0 0 0 - - -;
#X floatatom 190 382 5 0 0 0 - - -;
#X obj 235 382 receive ataque_rec;
#X obj 190 357 receive decaimento_rec;
#X msg 212 182 \; ataque_rec \$1;
#X msg 320 114 \; decaimento_rec \$1;
#N canvas 1618 1073 959 463 processa_onda 1;
#X obj 27 17 inlet;
#X obj 22 114 route senoidal triangular quadrada dente-de-serra;
#X obj 94 553 multiplex~ 0 1 2 3 4;
#X obj 152 472 osc~ 400;
#X obj 16 224 print;
#X obj 113 215 print;
#X obj 209 215 print;
#X obj 301 213 print;
#X obj 246 438 phasor~ 400;
#X obj 246 467 *~ 2;
#X obj 246 492 -~ 1;
#X obj 197 518 sgn~;
#X obj 153 514 abs~;
#X obj 94 599 outlet~;
#X obj 690 426 declare -lib zexy;
#X obj 184 290 receive freq_nota;
#X floatatom 184 315 5 0 0 0 - - -;
#N canvas 961 576 959 463 midi-to-hz 0;
#X obj 201 102 inlet;
#X obj 201 189 outlet;
#X obj 203 143 expr 440*(pow (2 \, (($f1-69)/12)));
#X connect 0 0 2 0;
#X connect 2 0 1 0;
#X restore 185 356 pd midi-to-hz;
#X msg 16 184 \; mux_rec 1;
#X msg 113 175 \; mux_rec 2;
#X msg 209 175 \; mux_rec 3;
#X msg 307 166 \; mux_rec 4;
#X obj 392 195 print;
#X msg 398 148 \; mux_rec 4;
#X floatatom 50 492 5 0 0 0 mux_rec mux_rec -;
#X connect 0 0 1 0;
#X connect 1 0 18 0;
#X connect 1 1 19 0;
#X connect 1 2 20 0;
#X connect 1 3 21 0;
#X connect 1 4 23 0;
#X connect 2 0 13 0;
#X connect 3 0 2 1;
#X connect 8 0 9 0;
#X connect 9 0 10 0;
#X connect 10 0 11 0;
#X connect 10 0 2 4;
#X connect 10 0 12 0;
#X connect 11 0 2 3;
#X connect 12 0 2 2;
#X connect 15 0 16 0;
#X connect 16 0 17 0;
#X connect 17 0 3 0;
#X connect 17 0 8 0;
#X connect 18 0 4 0;
#X connect 19 0 5 0;
#X connect 20 0 6 0;
#X connect 21 0 7 0;
#X connect 23 0 22 0;
#X connect 24 0 2 0;
#X restore 144 268 pd processa_onda;
#X obj 144 330 dac~;
#N canvas 0 56 959 984 processa_notas 1;
#X obj 184 158 list split 2;
#X obj 176 232 list trim;
#X obj 281 96 list store;
#X obj 121 261 outlet;
#X obj 206 267 bng 15 250 50 0 empty empty empty 17 7 0 10 -262144
-1 -1;
#X obj 275 22 receive stop_sig;
#X obj 107 44 inlet;
#X obj 277 61 bng 15 250 50 0 empty empty empty 17 7 0 10 -262144 -1
-1;
#X floatatom 390 300 5 0 0 0 - - -;
#X obj 389 272 receive tempo_nota;
#X msg 292 355 \; stop_sig 1;
#X obj 291 317 delay;
#X connect 0 0 1 0;
#X connect 0 1 2 1;
#X connect 1 0 3 0;
#X connect 1 0 4 0;
#X connect 2 0 0 0;
#X connect 4 0 11 0;
#X connect 5 0 7 0;
#X connect 6 0 0 0;
#X connect 7 0 2 0;
#X connect 8 0 11 1;
#X connect 9 0 8 0;
#X connect 11 0 10 0;
#X restore 466 226 pd processa_notas;
#X msg 473 276 \; tempo_nota \$2;
#X msg 373 276 \; freq_nota \$1;
#X obj 172 218 bng 15 250 50 0 empty empty empty 17 7 0 10 -262144
-1 -1;
#X connect 5 0 6 0;
#X connect 6 0 9 0;
#X connect 6 1 10 0;
#X connect 6 2 17 0;
#X connect 6 2 22 0;
#X connect 6 3 15 0;
#X connect 6 4 16 0;
#X connect 6 6 7 0;
#X connect 6 7 19 0;
#X connect 6 8 8 0;
#X connect 13 0 11 0;
#X connect 14 0 12 0;
#X connect 17 0 18 0;
#X connect 17 0 18 1;
#X connect 19 0 21 0;
#X connect 19 0 20 0;
#X coords 0 0 0.25 0.25 0 0 0;
